<svg width="36" height="36" viewBox="0 0 36 36" fill="none" xmlns="http://www.w3.org/2000/svg">
<path d="M23.25 23.9985L26.25 26.9985L32.25 20.9985M30.75 14.9984V11.9984C30.7495 11.4724 30.6106 10.9557 30.3473 10.5002C30.084 10.0447 29.7056 9.66649 29.25 9.40345L18.75 3.40345C18.2939 3.14014 17.7766 3.00153 17.25 3.00153C16.7234 3.00153 16.2061 3.14014 15.75 3.40345L5.25 9.40345C4.79439 9.66649 4.41597 10.0447 4.15269 10.5002C3.88941 10.9557 3.75054 11.4724 3.75 11.9984V23.9985C3.75054 24.5245 3.88941 25.0412 4.15269 25.4967C4.41597 25.9522 4.79439 26.3304 5.25 26.5934L15.75 32.5934C16.2061 32.8568 16.7234 32.9954 17.25 32.9954C17.7766 32.9954 18.2939 32.8568 18.75 32.5934L21.75 30.8835M10.5 6.40345L24 14.1284M4.185 10.4984L17.25 17.9985M17.25 17.9985L30.315 10.4984M17.25 17.9985V32.9985" stroke="#1D1D1B" stroke-width="2" stroke-linecap="round" stroke-linejoin="round"/>
</svg>
