<svg width="386" height="271" viewBox="0 0 386 271" fill="none" xmlns="http://www.w3.org/2000/svg">
<g clip-path="url(#clip0_6267_8989)">
<path d="M154.024 57.4196C154.024 40.4517 169.303 26.7004 188.185 26.7004C207.051 26.7004 222.346 40.4517 222.346 57.4196C222.346 65.3809 219.451 72.6505 214.433 78.1188C204.831 88.573 190.469 99.1076 190.469 112.682V117.25M190.469 117.25C202.365 117.061 214.04 120.481 223.954 127.06L343.502 207.638C364.506 221.807 353.361 251.867 327.097 251.867H60.2097C34.219 251.867 22.8964 222.354 43.3544 207.96L157.482 127.688C167.168 120.962 178.66 117.318 190.453 117.234L190.469 117.25Z" stroke="#1D1D1B" stroke-width="4.68826" stroke-linecap="round"/>
<rect x="89" y="243" width="12" height="28" fill="#1D1D1B"/>
<rect x="284" y="243" width="12" height="28" fill="#1D1D1B"/>
</g>
<defs>
<clipPath id="clip0_6267_8989">
<rect width="386" height="271" fill="white"/>
</clipPath>
</defs>
</svg>
