<svg width="36" height="36" viewBox="0 0 36 36" fill="none" xmlns="http://www.w3.org/2000/svg">
<path d="M21.0086 28.5V10.5C21.0086 9.70435 20.6925 8.94129 20.1299 8.37868C19.5673 7.81607 18.8042 7.5 18.0086 7.5H13.5086M22.5086 28.5H13.5086M22.5086 28.5C22.5086 30.1569 23.8517 31.5 25.5086 31.5C27.1654 31.5 28.5086 30.1569 28.5086 28.5M22.5086 28.5C22.5086 26.8431 23.8517 25.5 25.5086 25.5C27.1654 25.5 28.5086 26.8431 28.5086 28.5M13.5086 28.5C13.5086 30.1569 12.1654 31.5 10.5086 31.5C8.85171 31.5 7.50856 30.1569 7.50856 28.5M13.5086 28.5C13.5086 26.8431 12.1654 25.5 10.5086 25.5C8.85171 25.5 7.50856 26.8431 7.50856 28.5M28.5086 28.5H31.5086C31.9064 28.5 32.2879 28.342 32.5692 28.0607C32.8505 27.7794 33.0086 27.3978 33.0086 27V21.525C33.0066 21.1867 32.8903 20.8589 32.6786 20.595L27.4586 14.07C27.3189 13.8932 27.1412 13.7502 26.9386 13.6515C26.736 13.5528 26.5139 13.501 26.2886 13.5H21.0086M3.00856 19.5V27C3.00856 27.3978 3.16659 27.7794 3.4479 28.0607C3.7292 28.342 4.11073 28.5 4.50856 28.5H7.50856M6.00856 4.5L3.23356 7.725C3.12162 7.82739 3.04372 7.96161 3.01036 8.1096C2.977 8.2576 2.98977 8.41226 3.04696 8.55277C3.10415 8.69329 3.203 8.81291 3.33023 8.89555C3.45745 8.97819 3.60693 9.01988 3.75856 9.015H6.98356C7.14706 8.97674 7.31885 8.99809 7.46801 9.07522C7.61716 9.15234 7.7339 9.28017 7.79719 9.4357C7.86049 9.59123 7.8662 9.76425 7.81328 9.92361C7.76037 10.083 7.65231 10.2182 7.50856 10.305L4.50856 13.53" stroke="#1D1D1B" stroke-width="2" stroke-linecap="round" stroke-linejoin="round"/>
</svg>
