<svg width="215" height="202" viewBox="0 0 215 202" fill="none" xmlns="http://www.w3.org/2000/svg">
<path opacity="0.8" fill-rule="evenodd" clip-rule="evenodd" d="M180.134 123.98C182.821 121.632 185.8 119.647 189.553 116.77C190.718 115.803 191.95 114.745 193.256 113.571C198.399 108.941 202.601 104.567 206.113 100.682C206.329 100.45 206.529 100.202 206.729 99.9624C211.413 94.1917 211.547 86.5195 211.83 77.8055C209.932 80.046 207.777 82.4105 205.339 84.866C202.776 87.4537 199.897 90.1406 196.668 92.8937C196.518 93.026 196.369 93.15 196.219 93.274C194.763 94.5059 193.223 95.7625 191.625 97.0192C180.708 105.56 180.408 104.559 175.615 109.454C173.951 111.157 171.729 113.579 168.334 117.357C168.65 116.712 168.958 116.092 169.266 115.497C172.104 109.925 174.583 106.477 177.246 103.757C181.973 98.9373 187.282 96.4322 196.177 88.4541C196.244 88.4044 196.31 88.3383 196.377 88.2804C201.519 83.6506 205.722 79.2771 209.233 75.3914C214.825 69.2156 214.659 60.6752 215 50.9196C213.935 52.3499 212.762 53.8463 211.455 55.4088C207.078 60.6587 201.27 66.6361 193.647 72.9111C178.311 85.5439 181.349 80.1039 167.394 95.622C167.751 94.8779 168.109 94.1669 168.45 93.489C168.9 92.6043 169.341 91.7776 169.765 91.0005C176.506 78.7397 180.516 79.5499 193.414 68.4798C200.047 62.7917 205.181 57.4178 209.108 52.6723C215.657 44.7686 215.549 40.4198 214.309 27.4399C213.627 28.3741 212.895 29.3496 212.104 30.35C210.956 31.8051 209.699 33.3263 208.318 34.9137C204.082 39.7502 198.674 45.1158 191.817 50.7129C176.58 63.172 179.884 57.6411 166.037 73.0434C167.677 69.662 169.091 67.0495 170.423 64.9413C170.572 64.7098 170.722 64.4865 170.864 64.2716C173.834 59.7823 176.439 57.7155 180.184 55.0368C183.021 53.003 186.516 50.6137 191.317 46.5461C191.526 46.3724 191.734 46.1906 191.942 46.0169C194.105 44.165 196.111 42.3379 197.966 40.5687C201.07 37.5924 203.766 34.7401 206.096 32.0614C206.587 31.5075 207.045 30.937 207.469 30.3583C208.892 28.4237 209.991 26.3733 210.739 24.0832C212.678 18.1802 212.304 10.756 209.308 0C209.308 0 200.255 24.3561 160.537 48.2244C158.032 49.7291 155.436 51.4156 153.073 53.0443L153.123 53.1187C156.767 58.4843 159.563 64.2468 161.635 70.2242C161.702 70.4144 161.768 70.5962 161.827 70.7947C164.198 77.7807 165.563 85.0478 166.104 92.2902C166.162 93.0921 166.212 93.8941 166.254 94.696C166.462 98.7802 166.412 102.856 166.137 106.858C165.704 113.174 164.714 119.325 163.283 125.096C160.67 135.645 156.593 144.954 151.775 151.775C149.336 154.834 146.257 157.248 143.328 158.885C143.029 159.05 142.729 159.207 142.438 159.356C139.06 163.407 132.694 170.261 127.027 171.881C125.329 172.369 124.131 172.584 123.299 172.626C120.112 172.783 122.234 170.369 122.234 170.369C122.234 170.369 123.657 167.946 125.97 161.241C127.143 157.827 127.718 155.239 128 153.519C127.052 151.287 126.478 148.766 126.627 146.657C126.736 145.235 127.268 143.474 128.159 141.531C128.192 141.441 128.242 141.358 128.283 141.267C128.392 140.994 128.516 140.713 128.65 140.432C129.64 138.274 131.013 135.951 132.694 133.644C135.24 130.164 137.969 126.228 140.208 121.309C140.99 119.474 141.706 117.506 142.33 115.381C142.663 114.224 142.979 113.017 143.253 111.76C143.661 110.346 144.002 108.891 144.269 107.362C144.527 105.65 144.71 103.84 144.826 101.938C144.851 101.384 144.859 100.814 144.859 100.244C144.859 88.5367 141.639 76.615 136.264 66.8263C105.317 96.953 122.142 127.32 93.8581 143.425C91.9109 121.863 86.3938 102.137 78.4886 84.5022C77.9726 83.353 77.4484 82.2204 76.9158 81.096C76.4165 80.0212 76.2917 78.872 75.9256 79.9881C66.5724 108.288 80.0779 136.902 79.795 137.133C73.7038 127.32 70.0091 114.397 70.0091 100.244C70.0091 69.5215 87.4173 44.6197 108.886 44.6197C120.553 44.6197 131.021 53.003 138.144 65.0239L138.128 65.0405C144.111 75.1434 147.739 87.8092 147.739 100.235C147.739 104.311 147.181 107.974 146.257 111.322C146.224 111.471 146.191 111.62 146.166 111.76V111.818L146.141 111.851V111.876L146.133 111.917V111.934L146.116 111.983L146.108 112.058V112.116H146.091V112.165L146.083 112.174V112.223L146.066 112.24V112.281L146.058 112.306V112.339L146.033 112.397V112.43L146.024 112.446V112.496L146.016 112.504V112.554H146V112.612L145.975 112.67L145.966 112.727L145.958 112.777V112.802L145.95 112.835V112.86L145.933 112.893V112.951L145.908 112.984V113.05L145.891 113.058V113.108H145.883L145.866 113.166V113.215L145.858 113.224V113.273L145.841 113.281V113.331L145.825 113.348V113.381L145.816 113.414V113.447L145.8 113.48V113.505L145.783 113.538V113.604L145.767 113.612V113.662H145.758L145.742 113.711L145.733 113.769L145.725 113.819V113.877L145.708 113.901V113.935L145.692 113.959V113.992L145.675 114.025V114.05L145.658 114.083V114.149L145.642 114.158V114.207L145.608 114.265V114.315L145.592 114.323V114.373L145.575 114.381V114.422L145.558 114.447V114.48L145.542 114.513V114.546L145.534 114.579V114.596L145.517 114.637V114.654L145.5 114.703L145.492 114.761L145.475 114.819L145.459 114.918V114.935L145.442 114.976V115.001L145.434 115.034V115.067L145.417 115.092V115.125L145.4 115.15V115.191L145.392 115.199L145.375 115.249L145.359 115.307C142.812 124.004 138.693 130.023 134.974 135.116C133.384 137.298 132.095 139.465 131.188 141.449C130.297 143.383 129.765 145.153 129.665 146.575C129.49 148.914 130.231 151.775 131.371 154.172C132.469 156.512 133.867 158.339 135.015 158.629C136.363 158.968 139.109 158.19 142.155 156.487C144.835 154.999 147.63 152.808 149.819 150.047C151.109 148.427 152.507 146.252 153.921 143.499C157.541 136.86 160.079 128.857 161.768 121.053C162.209 119.027 162.592 117.027 162.925 115.059C163.874 109.429 164.39 104.138 164.589 99.8136C164.589 99.5656 164.589 99.3176 164.581 99.0695V98.9786C164.581 98.8132 164.581 98.6562 164.573 98.4908C164.564 97.8873 164.539 97.2755 164.514 96.672C164.506 96.2834 164.481 95.8948 164.465 95.5062C164.431 94.8862 164.39 94.2826 164.34 93.6709V93.6543C164.298 93.1583 164.257 92.6539 164.207 92.1579V92.1C163.533 85.2132 162.018 78.4586 159.796 72.0761C159.73 71.8777 159.663 71.6793 159.588 71.4809C150.818 46.8768 131.487 27.8946 109.036 27.8946C78.3471 27.8946 53.4663 60.2536 53.4663 100.169C53.4663 115.762 63.6017 144.086 63.1773 143.979C62.6947 143.863 56.0293 127.171 53.9989 120.234C52.9421 116.621 52.0101 112.198 51.3777 107.196C49.1559 89.7273 56.6367 63.3952 57.7268 54.3754C58.7171 46.1244 51.0781 40.1635 44.3877 33.0204C46.0936 44.4709 40.7846 62.2461 38.9872 84.6841C38.3048 93.2161 38.1467 98.4991 38.3714 105.452C38.5462 110.983 40.2604 124.459 40.6182 129.552C40.6182 129.626 40.5183 129.651 40.4934 129.577C39.1619 125.187 36.7238 110.718 36.4741 105.783C36.1163 98.805 35.6337 91.8437 35.9333 84.4691C36.7238 64.8834 42.557 49.6133 41.4669 38.4026C40.4767 28.2087 37.298 25.2076 27.1875 16.9071C29.0349 28.341 27.2708 46.5626 23.4679 69.5628C22.2696 76.8382 21.6788 83.4522 21.7287 90.802C21.8203 104.997 24.2251 112.455 25.5316 116.415C23.3514 110.933 19.8481 101.401 19.457 91.0087C19.1991 83.9565 18.6249 76.8134 19.7732 70.0506C22.8272 52.1432 24.2751 39.1384 23.4596 28.1839C22.7523 18.6184 18.7913 9.28441 4.11249 1.0169C4.32884 1.50469 14.9219 25.0588 3.93774 69.3809C-9.56778 123.905 11.7099 177.859 67.1133 195.874C77.748 199.718 89.1815 202 100.756 202C125.18 202 143.811 197.147 158.323 188.822C160.029 187.854 161.685 186.821 163.275 185.754C173.801 178.686 181.948 169.641 188.505 159.265C199.373 144.012 205.58 126.361 208.917 109.23C209.317 107.172 209.683 105.121 209.999 103.088C209.724 103.393 209.433 103.708 209.142 104.014C205.938 107.453 202.16 111.107 197.733 114.885C196.136 116.241 194.455 117.622 192.691 119.011C192.233 119.366 191.792 119.714 191.367 120.036C191.334 120.069 191.301 120.094 191.268 120.119C183.046 126.46 181.557 126.815 178.369 129.783C176.514 131.52 174.076 134.132 169.391 139.349C169.857 138.382 170.314 137.48 170.764 136.629C174.101 130.238 176.98 126.774 180.308 123.864L180.134 123.98ZM199.822 99.0365C201.486 97.6475 203.026 96.7298 203.284 96.9944C203.542 97.2589 202.393 98.6066 200.729 99.9955C199.073 101.384 197.525 102.302 197.267 102.029C197.018 101.765 198.158 100.425 199.822 99.0365ZM191.7 110.694C193.356 109.305 194.904 108.387 195.162 108.66C195.42 108.924 194.272 110.272 192.607 111.653C190.951 113.042 189.404 113.959 189.146 113.695C188.888 113.43 190.036 112.083 191.7 110.694ZM199.447 80.9306C201.12 79.5499 202.676 78.6488 202.926 78.9134C203.175 79.1862 202.027 80.5255 200.354 81.8979C198.69 83.2786 197.134 84.1798 196.884 83.9152C196.626 83.6424 197.783 82.3113 199.447 80.9306ZM185.409 86.8419C186.949 85.3124 188.422 84.279 188.688 84.527C188.963 84.775 187.939 86.2053 186.4 87.7265C184.86 89.2477 183.396 90.2812 183.121 90.0414C182.846 89.7934 183.87 88.3631 185.409 86.8419ZM203.017 52.664C204.648 51.242 206.179 50.2995 206.437 50.5641C206.695 50.8204 205.572 52.1928 203.941 53.6148C202.31 55.0368 200.779 55.9793 200.521 55.7147C200.263 55.4502 201.378 54.086 203.009 52.664H203.017ZM194.097 62.8992C195.769 61.4854 197.334 60.5595 197.575 60.8158C197.825 61.0803 196.668 62.4445 194.996 63.85C193.323 65.2637 191.759 66.1979 191.517 65.9334C191.268 65.6688 192.424 64.3129 194.097 62.8909V62.8992ZM182.447 68.9427C184.078 67.5207 185.609 66.5782 185.867 66.8428C186.125 67.1074 185.01 68.4715 183.379 69.8935C181.74 71.3155 180.209 72.258 179.959 71.9934C179.701 71.7372 180.816 70.373 182.447 68.951V68.9427ZM192.732 34.9716C194.371 33.5495 195.903 32.607 196.152 32.8716C196.41 33.1362 195.295 34.5003 193.664 35.9223C192.033 37.3443 190.502 38.2868 190.244 38.0223C189.986 37.7577 191.101 36.3936 192.732 34.9716ZM185.784 46.0004C187.44 44.5701 188.979 43.6194 189.237 43.8839C189.495 44.1402 188.347 45.5209 186.691 46.9512C185.035 48.3815 183.487 49.3322 183.229 49.0759C182.98 48.8114 184.12 47.439 185.775 46.0004H185.784ZM172.17 51.2585C173.801 49.8365 175.332 48.894 175.59 49.1586C175.848 49.4232 174.733 50.7873 173.102 52.2093C171.471 53.6313 169.94 54.5738 169.682 54.3092C169.424 54.053 170.547 52.6888 172.178 51.2668L172.17 51.2585ZM149.004 141.143C149.311 141.358 148.746 142.615 147.747 143.954C146.74 145.293 145.675 146.219 145.375 146.012C145.068 145.806 145.633 144.541 146.632 143.201C147.63 141.862 148.696 140.936 149.004 141.143ZM22.3612 124.674C22.045 124.864 20.9382 123.492 19.8981 121.607C18.8496 119.722 18.2421 118.035 18.5583 117.845C18.8745 117.655 19.9813 119.027 21.0298 120.912C22.0782 122.797 22.6774 124.484 22.3695 124.674H22.3612ZM27.4788 154.726C27.1626 154.917 26.0808 153.495 25.0656 151.56C24.0421 149.625 23.4679 147.914 23.7841 147.732C24.1003 147.542 25.1821 148.964 26.2056 150.899C27.2208 152.833 27.795 154.545 27.4788 154.726ZM31.0154 145.806C30.7158 146.021 29.5175 144.698 28.3276 142.854C27.1459 141.019 26.422 139.357 26.7215 139.15C27.0211 138.935 28.2194 140.258 29.4093 142.102C30.591 143.937 31.3149 145.599 31.0154 145.806ZM34.1691 131.941C33.8696 132.156 32.6796 130.858 31.5063 129.048C30.333 127.237 29.6174 125.592 29.9169 125.377C30.2165 125.162 31.4065 126.46 32.5798 128.27C33.7531 130.081 34.4687 131.726 34.1691 131.941ZM36.8236 143.243C37.1399 143.053 38.2133 144.45 39.2202 146.368C40.2271 148.278 40.7846 149.981 40.4601 150.163C40.1439 150.353 39.0787 148.956 38.0718 147.046C37.065 145.128 36.5074 143.433 36.8236 143.243ZM40.9094 165.813C40.5932 166.003 39.5198 164.606 38.5129 162.696C37.506 160.786 36.9318 159.092 37.2564 158.901C37.5726 158.711 38.646 160.109 39.6529 162.018C40.6598 163.928 41.2339 165.623 40.9094 165.813ZM46.8342 142.168C46.518 142.35 45.4695 140.936 44.4959 139.002C43.5223 137.075 43.0064 135.364 43.3226 135.182C43.6388 135 44.6873 136.414 45.6609 138.348C46.6262 140.275 47.1504 141.986 46.8342 142.168ZM52.1599 164.093C51.8436 164.275 50.7868 162.87 49.8049 160.944C48.8147 159.025 48.2738 157.322 48.59 157.141C48.9062 156.95 49.9713 158.364 50.9533 160.282C51.9435 162.2 52.4761 163.912 52.1599 164.093ZM85.778 180.099C85.6283 180.43 83.9224 179.876 81.9752 178.868C80.028 177.867 78.5634 176.784 78.7215 176.453C78.8797 176.123 80.5772 176.677 82.5327 177.677C84.4799 178.677 85.9361 179.769 85.7864 180.099H85.778ZM90.0635 170.517C89.8305 170.79 88.3577 169.773 86.7766 168.252C85.1955 166.731 84.1138 165.276 84.3551 165.011C84.5964 164.738 86.0693 165.755 87.642 167.276C89.2231 168.798 90.3048 170.253 90.0635 170.526V170.517ZM92.4767 161.679C92.1439 161.836 91.2202 160.34 90.4047 158.339C89.5892 156.339 89.1981 154.594 89.531 154.437C89.8638 154.28 90.7958 155.776 91.6113 157.777C92.4268 159.778 92.8179 161.522 92.4767 161.679ZM99.7246 180.513C99.4833 180.786 98.0187 179.81 96.446 178.33C94.8649 176.842 93.7832 175.42 94.0245 175.131C94.2575 174.858 95.7304 175.833 97.3031 177.313C98.8758 178.801 99.9576 180.223 99.7246 180.513ZM107.397 188.036C107.255 188.367 105.55 187.904 103.586 186.986C101.622 186.06 100.141 185.052 100.282 184.704C100.415 184.365 102.129 184.837 104.093 185.754C106.057 186.672 107.53 187.689 107.397 188.036ZM108.104 171.658C107.855 171.931 106.423 170.898 104.9 169.352C103.378 167.806 102.354 166.342 102.604 166.078C102.853 165.805 104.285 166.838 105.807 168.384C107.33 169.922 108.354 171.394 108.104 171.658ZM116.609 182.464C116.459 182.795 114.778 182.232 112.864 181.215C110.95 180.19 109.527 179.099 109.685 178.768C109.835 178.438 111.516 178.992 113.43 180.017C115.335 181.034 116.767 182.125 116.609 182.464ZM165.513 156.173C166.004 155.685 166.495 155.247 166.936 154.883C167.876 154.115 168.617 153.685 168.8 153.858C169.05 154.073 168.234 155.272 166.936 156.628C166.795 156.768 166.661 156.909 166.512 157.058C164.972 158.579 163.508 159.613 163.233 159.364C162.958 159.125 163.982 157.694 165.521 156.165L165.513 156.173ZM166.936 173.965C166.936 173.965 166.928 173.965 166.919 173.973C165.047 175.122 163.358 175.8 163.158 175.503C163.008 175.288 163.674 174.618 164.764 173.833C165.18 173.527 165.654 173.213 166.179 172.89C168.051 171.749 169.732 171.063 169.94 171.361C170.148 171.658 168.8 172.816 166.944 173.957L166.936 173.965ZM182.755 158.116C183.029 158.364 182.006 159.794 180.466 161.316C178.927 162.837 177.454 163.879 177.188 163.63C176.913 163.382 177.937 161.952 179.476 160.431C181.016 158.91 182.489 157.876 182.755 158.116ZM177.662 149.849C179.202 148.327 180.674 147.286 180.941 147.534C181.215 147.782 180.192 149.212 178.652 150.733C177.113 152.254 175.648 153.288 175.374 153.048C175.099 152.8 176.123 151.37 177.662 149.849ZM169.391 162.051C170.93 160.53 172.395 159.497 172.669 159.737C172.944 159.985 171.92 161.415 170.381 162.936C168.842 164.457 167.369 165.499 167.102 165.251C166.828 165.003 167.851 163.573 169.391 162.051Z" fill="#1D1D1B"/>
</svg>
