<svg width="183" height="26" viewBox="0 0 183 26" fill="none" xmlns="http://www.w3.org/2000/svg">
<path d="M0 25.9963V25.9261C1.16467 23.2015 1.62169 21.719 1.62169 17.9667V8.13309C1.62169 4.38448 1.16467 2.89834 0 0.177453V0.107213C1.72857 0.107213 10.9316 0.0702441 11.8825 0.0702441C18.8632 0.0332755 20.9456 2.72459 20.9456 6.01109C20.9456 8.62847 19.7109 11.3161 15.5166 12.4473C20.2416 13.2976 22.1471 15.878 22.1471 19.098C22.1471 23.2348 19.2538 25.9963 12.3101 25.9963H0ZM10.2977 11.7782C13.6811 11.7412 14.8458 9.02034 14.8458 6.4732C14.8458 3.92607 13.6811 1.55638 10.1208 1.55638C9.34681 1.55638 8.63917 1.62662 7.96838 1.69686V11.7782H10.2977ZM15.5166 18.9575C15.5166 15.8115 14.2819 13.2976 10.4378 13.2976H7.96838V24.403C8.63917 24.5102 9.41316 24.5804 10.224 24.5804C13.9281 24.5804 15.5129 22.2107 15.5129 18.9575H15.5166Z" fill="#1D1D1B"/>
<path d="M22.8142 25.9963V25.9261C24.3658 24.4769 25.5637 22.2107 26.6215 19.3124L33.5689 3.8147e-06H37.9069L44.9244 19.4898C45.9122 22.2477 46.97 24.4067 48.2747 25.9261V25.9963H37.6268V25.9261C38.9315 24.2994 39.3185 21.8928 38.2608 18.854L37.5568 16.8392H29.2014L28.7776 17.9704C27.2959 21.9667 28.2137 24.5471 30.0823 25.9298V26H22.8179L22.8142 25.9963ZM37.0224 15.2791L33.4252 4.98706L29.7211 15.2791H37.0224Z" fill="#1D1D1B"/>
<path d="M58.038 24.5102L62.3391 24.2625C64.7385 24.1553 68.1588 19.7708 69.8505 17.0462L70.5544 17.2569L68.6158 25.9926H50.2428V25.9224C51.2637 23.4122 51.6876 21.963 51.6876 18.5287V8.12939C51.6876 4.38078 51.2306 2.89464 50.0659 0.170059V0.099819H59.656V0.170059C58.4913 2.89464 58.0343 4.45102 58.0343 8.09243V24.5028L58.038 24.5102Z" fill="#1D1D1B"/>
<path d="M80.7453 24.5102L85.0464 24.2625C87.4458 24.1553 90.8661 19.7708 92.5578 17.0462L93.2617 17.2569L91.3231 25.9926H72.9538V25.9224C73.9747 23.4122 74.3986 21.963 74.3986 18.5287V8.12939C74.3986 4.38078 73.9416 2.89464 72.7769 0.170059V0.099819H82.367V0.170059C81.2023 2.89464 80.7453 4.45102 80.7453 8.09243V24.5102Z" fill="#1D1D1B"/>
<path d="M95.4842 25.9261C96.5751 23.2385 97.1059 21.6821 97.1059 18.1442V7.95934C97.1059 4.42145 96.5751 2.86507 95.4842 0.177453V0.107213H114.1L115.512 7.39372L114.771 7.64141C112.939 5.80407 110.083 1.98152 108.214 1.80407L103.453 1.48614V12.2033H105.605C107.544 12.2033 109.272 9.97413 110.293 8.66544H111.034V17.4011H110.293C109.272 16.0924 107.577 13.7227 105.531 13.7227H103.449V24.6174L108.808 24.3327C111.207 24.2255 114.768 19.6303 116.599 17.0129L117.34 17.2606L115.401 25.9963H95.4805V25.9261H95.4842Z" fill="#1D1D1B"/>
<path d="M129.156 25.9963H119.916V25.9261C120.937 23.4159 121.361 21.9667 121.361 18.5324V7.56747C121.361 4.09982 120.937 2.68762 119.916 0.173756V0.103516H131.058C138.603 0.103516 141.142 2.68392 141.142 6.53975C141.142 9.44178 139.874 12.0555 136.664 13.5083L140.154 20.5804C141.529 23.305 142.27 24.647 144.315 25.8484V25.9889H135.783L130.317 14.5656H127.708V18.5287C127.708 21.9224 128.095 23.4085 129.153 25.9224V25.9926L129.156 25.9963ZM127.712 1.62662V13.0499H129.65C133.564 13.0499 134.622 9.72644 134.622 6.72089C134.622 3.71535 133.494 1.59335 129.473 1.59335C129.049 1.59335 128.415 1.59335 127.712 1.63032V1.62662Z" fill="#1D1D1B"/>
<path d="M146.118 25.9261C147.282 23.2015 147.739 21.719 147.739 17.9667V8.13309C147.739 4.38448 147.282 2.89834 146.118 0.173756V0.103516H155.745V0.173756C154.58 2.89834 154.086 4.45472 154.086 8.09612V18C154.086 21.6414 154.58 23.1978 155.745 25.9224V25.9926H146.118V25.9224V25.9261Z" fill="#1D1D1B"/>
<path d="M157.54 25.9963V25.9261C159.091 24.4769 160.289 22.2107 161.347 19.3124L168.294 3.8147e-06H172.632L179.65 19.4898C180.637 22.2477 181.695 24.4067 183 25.9261V25.9963H172.352V25.9261C173.657 24.2994 174.044 21.8928 172.986 18.854L172.282 16.8392H163.927L163.503 17.9704C162.021 21.9667 162.939 24.5471 164.808 25.9298V26H157.543L157.54 25.9963ZM171.751 15.2791L168.154 4.98706L164.454 15.2791H171.751Z" fill="#1D1D1B"/>
</svg>
