<svg width="75" height="528" viewBox="0 0 75 528" fill="none" xmlns="http://www.w3.org/2000/svg">
<path d="M74.9894 528L74.7868 528C66.9274 524.64 62.6511 523.321 51.8271 523.321L23.4609 523.321C12.6475 523.321 8.36061 524.64 0.511896 528L0.309279 528C0.309279 523.013 0.202638 496.46 0.202638 493.716C0.0959966 473.575 7.8594 467.567 17.3397 467.567C24.8898 467.567 32.6426 471.129 35.9058 483.231C38.3585 469.598 45.802 464.1 55.0903 464.1C67.0234 464.1 74.9894 472.448 74.9894 492.482L74.9894 528ZM33.9756 498.289C33.8689 488.527 26.0202 485.166 18.6727 485.166C11.3252 485.166 4.48957 488.527 4.48957 498.799C4.48957 501.032 4.69219 503.074 4.89481 505.009L33.9756 505.009L33.9756 498.289ZM54.6851 483.231C45.61 483.231 38.3585 486.793 38.3585 497.884L38.3585 505.009L70.3932 505.009C70.7025 503.074 70.9051 500.841 70.9051 498.501C70.9051 487.814 64.0694 483.241 54.6851 483.241L54.6851 483.231Z" fill="#1D1D1B"/>
<path d="M74.9894 462.175L74.7868 462.175C70.6065 457.699 64.0694 454.242 55.7088 451.191L1.86545e-05 431.145L1.81074e-05 418.629L56.2207 398.382C64.1761 395.532 70.4038 392.48 74.7868 388.716L74.9894 388.716L74.9894 419.437L74.7868 419.437C70.0946 415.673 63.1523 414.556 54.3865 417.608L48.5746 419.639L48.5746 443.747L51.8378 444.97C63.3656 449.244 70.8091 446.597 74.7974 441.205L75 441.205L75 462.165L74.9894 462.175ZM44.0744 421.181L14.3858 431.56L44.0744 442.247L44.0744 421.181Z" fill="#1D1D1B"/>
<path d="M70.7024 360.546L69.988 348.136C69.6787 341.214 57.0312 331.345 49.1718 326.464L49.7796 324.433L74.9787 330.027L74.9787 383.037L74.7761 383.037C67.5352 380.092 63.3549 378.869 53.4481 378.869L23.4502 378.869C12.6369 378.869 8.34994 380.187 0.490561 383.548L0.287945 383.548L0.287944 355.878L0.49056 355.878C8.34994 359.238 12.8395 360.557 23.3435 360.557L70.6811 360.557L70.7024 360.546Z" fill="#1D1D1B"/>
<path d="M70.7024 295.03L69.988 282.62C69.6787 275.697 57.0312 265.829 49.1718 260.948L49.7796 258.917L74.9787 264.51L74.9787 317.51L74.7761 317.51C67.5352 314.565 63.3549 313.342 53.4481 313.342L23.4502 313.342C12.6369 313.342 8.34994 314.66 0.490558 318.021L0.287942 318.021L0.287941 290.351L0.490557 290.351C8.34994 293.711 12.8395 295.03 23.3435 295.03L70.7024 295.03Z" fill="#1D1D1B"/>
<path d="M74.7868 252.505C67.034 249.357 62.5445 247.826 52.339 247.826L22.9596 247.826C12.7542 247.826 8.26462 249.357 0.511884 252.505L0.309267 252.505L0.309265 198.792L21.328 194.719L22.0425 196.857C16.7425 202.142 5.71592 210.383 5.20405 215.775L4.28694 229.514L35.2019 229.514L35.2019 223.304C35.2019 217.71 28.7715 212.723 24.9965 209.777L24.9965 207.64L50.1955 207.64L50.1955 209.777C46.4205 212.723 39.5848 217.614 39.5848 223.516L39.5848 229.525L71.0117 229.525L70.1906 214.063C69.8813 207.14 56.6259 196.867 49.0758 191.582L49.7903 189.445L74.9894 195.038L74.9894 252.515L74.7868 252.515L74.7868 252.505Z" fill="#1D1D1B"/>
<path d="M74.9894 155.352L74.9894 182.012L74.7868 182.012C67.5459 179.066 63.3656 177.843 53.4587 177.843L21.8292 177.843C11.8264 177.843 7.75275 179.066 0.501216 182.012L0.2986 182.012L0.298599 149.865C0.298598 128.097 7.74208 120.77 18.8647 120.77C27.2359 120.77 34.7754 124.429 38.9663 133.691L59.3666 123.62C67.226 119.654 71.097 117.516 74.5628 111.615L74.968 111.615L74.968 136.232L42.0162 152.003L42.0162 159.531L53.4481 159.531C63.2376 159.531 67.5246 158.415 74.7761 155.363L74.9787 155.363L74.9894 155.352ZM4.69217 159.521L37.644 159.521L37.644 153.927C37.644 142.634 28.057 139.582 19.3872 139.582C10.7173 139.582 4.5962 142.836 4.5962 154.438C4.5962 155.661 4.5962 157.49 4.70284 159.521L4.69217 159.521Z" fill="#1D1D1B"/>
<path d="M74.7867 106.415C66.9274 103.054 62.6511 101.736 51.8271 101.736L23.4608 101.736C12.6475 101.736 8.36059 103.054 0.501213 106.415L0.298597 106.415L0.298596 78.6385L0.501212 78.6385C8.36059 81.9988 12.8501 83.4238 23.3542 83.4238L51.9231 83.4238C62.4272 83.4238 66.9167 81.9988 74.7761 78.6385L74.9787 78.6385L74.9787 106.415L74.7761 106.415L74.7867 106.415Z" fill="#1D1D1B"/>
<path d="M74.9894 73.4597L74.7867 73.4597C70.6064 68.9828 64.0694 65.5268 55.7088 62.4748L1.66323e-06 42.4297L1.11613e-06 29.9134L56.2207 9.66632C64.176 6.8164 70.4038 3.7644 74.7867 -3.26903e-06L74.9894 -3.27789e-06L74.9894 30.7216L74.7867 30.7216C70.0946 26.9572 63.1523 25.8406 54.3865 28.8926L48.5746 30.9237L48.5746 55.031L51.8378 56.2539C63.3656 60.5288 70.8091 57.8809 74.7974 52.4894L75 52.4894L75 73.4491L74.9894 73.4597ZM44.0744 32.455L14.3858 42.8338L44.0744 53.5103L44.0744 32.455Z" fill="#1D1D1B"/>
</svg>
