<svg width="226" height="177" viewBox="0 0 226 177" fill="none" xmlns="http://www.w3.org/2000/svg">
<g opacity="0.2">
<path fill-rule="evenodd" clip-rule="evenodd" d="M152.393 67.779C153.859 66.4953 155.484 65.4106 157.532 63.8377C158.168 63.3089 158.84 62.7304 159.552 62.0885C162.358 59.5574 164.651 57.1665 166.567 55.0422C166.685 54.9156 166.794 54.78 166.903 54.6489C169.459 51.4941 169.531 47.2997 169.686 42.5359C168.651 43.7607 167.475 45.0534 166.145 46.3958C164.746 47.8105 163.175 49.2794 161.414 50.7845C161.332 50.8568 161.25 50.9246 161.169 50.9924C160.374 51.6659 159.534 52.3529 158.663 53.0399C152.706 57.7088 152.542 57.1619 149.927 59.8377C149.019 60.7687 147.807 62.0931 145.955 64.1586C146.127 63.8061 146.295 63.4671 146.463 63.1416C148.011 60.0953 149.364 58.2105 150.817 56.7235C153.396 54.0885 156.293 52.719 161.146 48.3574C161.182 48.3303 161.219 48.2941 161.255 48.2625C164.061 45.7314 166.353 43.3404 168.269 41.2161C171.32 37.8398 171.229 33.1708 171.416 27.8375C170.835 28.6194 170.194 29.4375 169.482 30.2917C167.093 33.1618 163.924 36.4296 159.766 39.8601C151.398 46.7664 153.056 43.7924 145.442 52.276C145.637 51.8693 145.832 51.4806 146.018 51.1099C146.264 50.6263 146.504 50.1743 146.736 49.7495C150.413 43.0466 152.602 43.4895 159.639 37.4375C163.257 34.3279 166.058 31.39 168.201 28.7957C171.774 24.4747 171.715 22.0973 171.039 15.0012C170.667 15.512 170.267 16.0453 169.836 16.5922C169.209 17.3877 168.524 18.2193 167.77 19.0871C165.459 21.7312 162.508 24.6646 158.767 27.7245C150.454 34.5358 152.256 31.5121 144.702 39.9325C145.596 38.0839 146.368 36.6556 147.094 35.5031C147.176 35.3765 147.258 35.2545 147.335 35.1369C148.956 32.6827 150.377 31.5527 152.42 30.0883C153.968 28.9765 155.875 27.6702 158.495 25.4465C158.608 25.3516 158.722 25.2521 158.835 25.1572C160.015 24.1448 161.11 23.1459 162.122 22.1787C163.816 20.5515 165.287 18.9922 166.558 17.5278C166.826 17.225 167.075 16.9131 167.307 16.5967C168.083 15.5391 168.683 14.4182 169.091 13.1662C170.149 9.93905 169.945 5.88026 168.31 0C168.31 0 163.371 13.3153 141.701 26.364C140.334 27.1866 138.918 28.1087 137.628 28.9991L137.656 29.0397C139.644 31.9731 141.17 35.1234 142.3 38.3912C142.336 38.4952 142.373 38.5946 142.404 38.7031C143.698 42.5223 144.443 46.4952 144.738 50.4546C144.77 50.893 144.797 51.3314 144.82 51.7698C144.933 54.0026 144.906 56.2309 144.756 58.4185C144.52 61.8716 143.98 65.2343 143.199 68.3891C141.773 74.1564 139.549 79.2457 136.92 82.9745C135.59 84.6469 133.91 85.9667 132.312 86.8616C132.148 86.952 131.985 87.0378 131.826 87.1192C129.983 89.3339 126.51 93.0808 123.418 93.9667C122.492 94.2334 121.838 94.3509 121.384 94.3735C119.645 94.4594 120.803 93.1396 120.803 93.1396C120.803 93.1396 121.579 91.8153 122.841 88.1497C123.481 86.283 123.795 84.8683 123.949 83.9282C123.431 82.7079 123.118 81.3293 123.2 80.1768C123.259 79.3994 123.549 78.4367 124.035 77.3745C124.053 77.3248 124.081 77.2796 124.103 77.2299C124.162 77.0807 124.23 76.927 124.303 76.7734C124.843 75.5937 125.593 74.3236 126.51 73.0626C127.899 71.1598 129.388 69.0084 130.609 66.3191C131.036 65.3157 131.427 64.24 131.767 63.0784C131.949 62.4456 132.121 61.7857 132.271 61.0987C132.493 60.3258 132.68 59.5303 132.825 58.6942C132.966 57.7586 133.066 56.7687 133.129 55.7292C133.143 55.4263 133.147 55.1145 133.147 54.8026C133.147 48.4026 131.39 41.885 128.457 36.5336C111.573 53.0037 120.753 69.605 105.321 78.4095C104.259 66.6219 101.249 55.8376 96.9355 46.1969C96.654 45.5687 96.368 44.9494 96.0774 44.3347C95.805 43.7472 95.7369 43.1189 95.5371 43.7291C90.4341 59.2004 97.8026 74.8434 97.6483 74.97C94.3249 69.605 92.3091 62.5405 92.3091 54.8026C92.3091 38.007 101.807 24.3934 113.52 24.3934C119.886 24.3934 125.597 28.9765 129.483 35.5482L129.474 35.5573C132.739 41.0805 134.718 48.0048 134.718 54.7981C134.718 57.0264 134.414 59.0286 133.91 60.8591C133.892 60.9405 133.874 61.0219 133.86 61.0987V61.1303L133.846 61.1484V61.162L133.842 61.1846V61.1936L133.833 61.2207L133.828 61.2614V61.293H133.819V61.3202L133.815 61.3247V61.3518L133.806 61.3608V61.3834L133.801 61.397V61.4151L133.787 61.4467V61.4648L133.783 61.4738V61.501L133.778 61.5055V61.5326H133.769V61.5642L133.756 61.5959L133.751 61.6275L133.747 61.6546V61.6682L133.742 61.6863V61.6998L133.733 61.7179V61.7496L133.719 61.7676V61.8038L133.71 61.8083V61.8354H133.706L133.697 61.8671V61.8942L133.692 61.8987V61.9258L133.683 61.9303V61.9575L133.674 61.9665V61.9846L133.669 62.0027V62.0207L133.66 62.0388V62.0524L133.651 62.0705V62.1066L133.642 62.1111V62.1383H133.638L133.628 62.1654L133.624 62.197L133.619 62.2241V62.2558L133.61 62.2693V62.2874L133.601 62.301V62.319L133.592 62.3371V62.3507L133.583 62.3688V62.4049L133.574 62.4094V62.4366L133.556 62.4682V62.4953L133.547 62.4998V62.527L133.538 62.5315V62.5541L133.529 62.5676V62.5857L133.52 62.6038V62.6219L133.515 62.64V62.649L133.506 62.6716V62.6806L133.497 62.7077L133.492 62.7394L133.483 62.771L133.474 62.8253V62.8343L133.465 62.8569V62.8705L133.46 62.8885V62.9066L133.451 62.9202V62.9383L133.442 62.9518V62.9744L133.438 62.9789L133.429 63.0061L133.42 63.0377C132.03 67.7925 129.783 71.0829 127.754 73.8671C126.886 75.0604 126.183 76.2446 125.688 77.3293C125.202 78.3869 124.911 79.3542 124.857 80.1316C124.762 81.4107 125.166 82.9745 125.788 84.2853C126.387 85.5644 127.15 86.5633 127.776 86.7215C128.512 86.9068 130.01 86.4819 131.672 85.5508C133.134 84.7373 134.659 83.5395 135.853 82.0299C136.557 81.144 137.32 79.9553 138.091 78.4502C140.066 74.8208 141.451 70.4456 142.373 66.179C142.613 65.0716 142.822 63.9778 143.004 62.9021C143.521 59.8241 143.803 56.9314 143.912 54.5676C143.912 54.432 143.912 54.2964 143.907 54.1608V54.1111C143.907 54.0207 143.907 53.9348 143.903 53.8444C143.898 53.5145 143.885 53.18 143.871 52.8501C143.866 52.6376 143.853 52.4252 143.844 52.2128C143.826 51.8738 143.803 51.5438 143.776 51.2094V51.2003C143.753 50.9291 143.73 50.6534 143.703 50.3822V50.3506C143.335 46.5856 142.509 42.8929 141.297 39.4036C141.26 39.2952 141.224 39.1867 141.183 39.0782C136.398 25.6273 125.851 15.2498 113.602 15.2498C96.8583 15.2498 83.2834 32.9403 83.2834 54.7619C83.2834 63.2863 88.8132 78.7711 88.5817 78.7124C88.3184 78.6491 84.6818 69.5236 83.574 65.7315C82.9974 63.7563 82.4889 61.3382 82.1438 58.6038C80.9316 49.0534 85.0132 34.6578 85.6079 29.7267C86.1482 25.216 81.9804 21.9572 78.3302 18.0521C79.2609 24.312 76.3643 34.0296 75.3837 46.2963C75.0114 50.9608 74.9251 53.8489 75.0477 57.6501C75.143 60.6738 76.0783 68.0411 76.2735 70.8253C76.2735 70.866 76.219 70.8796 76.2054 70.8389C75.479 68.4389 74.1488 60.5292 74.0126 57.8309C73.8173 54.0162 73.554 50.2105 73.7174 46.1788C74.1488 35.4714 77.3314 27.1233 76.7366 20.9945C76.1963 15.4216 74.462 13.7809 68.9458 9.243C69.9537 15.4939 68.9912 25.4555 66.9164 38.0296C66.2626 42.007 65.9403 45.6229 65.9675 49.641C66.0174 57.4015 67.3295 61.4784 68.0423 63.6433C66.8528 60.6467 64.9415 55.4354 64.7281 49.754C64.5873 45.8986 64.2741 41.9935 64.9006 38.2963C66.5668 28.5064 67.3568 21.3967 66.9118 15.408C66.5259 10.1786 64.3649 5.07574 56.3561 0.555936C56.4742 0.822604 62.2537 13.6995 56.2608 37.9302C48.8922 67.7383 60.5012 97.2345 90.7292 107.083C96.5314 109.185 102.769 110.432 109.085 110.432C122.41 110.432 132.575 107.779 140.493 103.228C141.424 102.699 142.327 102.134 143.194 101.551C148.938 97.6865 153.382 92.7418 156.96 87.0695C162.889 78.7304 166.276 69.0807 168.097 59.7156C168.315 58.5902 168.515 57.4693 168.687 56.3574C168.537 56.5247 168.378 56.6964 168.219 56.8636C166.471 58.7439 164.41 60.7416 161.995 62.8072C161.123 63.5484 160.206 64.3032 159.244 65.0626C158.994 65.2569 158.753 65.4467 158.522 65.623C158.504 65.6411 158.485 65.6547 158.467 65.6682C153.982 69.1349 153.169 69.3293 151.43 70.9519C150.418 71.901 149.087 73.3293 146.531 76.1813C146.786 75.6525 147.035 75.1598 147.281 74.6943C149.101 71.2005 150.672 69.3067 152.488 67.7157L152.393 67.779ZM163.139 54.1427C164.047 53.3834 164.887 52.8817 165.028 53.0263C165.168 53.171 164.542 53.9077 163.634 54.667C162.73 55.4263 161.886 55.928 161.745 55.7789C161.609 55.6343 162.231 54.902 163.139 54.1427ZM158.703 60.5156C159.607 59.7563 160.451 59.2546 160.592 59.4038C160.733 59.5484 160.106 60.2851 159.198 61.0399C158.295 61.7993 157.45 62.301 157.31 62.1563C157.169 62.0117 157.795 61.275 158.703 60.5156ZM162.93 44.2444C163.843 43.4895 164.692 42.9969 164.828 43.1415C164.964 43.2907 164.338 44.0229 163.425 44.7732C162.517 45.528 161.668 46.0206 161.532 45.876C161.391 45.7268 162.022 44.9992 162.93 44.2444ZM155.271 47.476C156.111 46.6398 156.915 46.0749 157.06 46.2105C157.21 46.3461 156.651 47.128 155.811 47.9596C154.971 48.7913 154.172 49.3562 154.023 49.2252C153.873 49.0896 154.431 48.3077 155.271 47.476ZM164.878 28.7911C165.768 28.0137 166.603 27.4985 166.744 27.6431C166.885 27.7832 166.272 28.5335 165.382 29.3109C164.492 30.0883 163.657 30.6036 163.516 30.459C163.375 30.3143 163.984 29.5686 164.873 28.7911H164.878ZM160.011 34.3867C160.923 33.6138 161.777 33.1076 161.909 33.2477C162.045 33.3923 161.414 34.1381 160.501 34.9064C159.589 35.6793 158.735 36.1901 158.604 36.0454C158.467 35.9008 159.098 35.1595 160.011 34.3821V34.3867ZM153.655 37.6906C154.545 36.9132 155.38 36.398 155.521 36.5426C155.662 36.6872 155.053 37.433 154.163 38.2104C153.269 38.9878 152.434 39.5031 152.297 39.3584C152.157 39.2183 152.765 38.4726 153.655 37.6952V37.6906ZM159.266 19.1188C160.161 18.3414 160.996 17.8261 161.132 17.9707C161.273 18.1154 160.665 18.8611 159.775 19.6385C158.885 20.416 158.05 20.9312 157.909 20.7866C157.768 20.6419 158.376 19.8962 159.266 19.1188ZM155.475 25.1482C156.379 24.3663 157.219 23.8465 157.36 23.9911C157.5 24.1312 156.874 24.886 155.97 25.668C155.067 26.4499 154.222 26.9697 154.082 26.8295C153.945 26.6849 154.567 25.9346 155.471 25.1482H155.475ZM148.048 28.0228C148.938 27.2454 149.773 26.7301 149.914 26.8747C150.055 27.0194 149.446 27.7652 148.556 28.5426C147.666 29.32 146.831 29.8352 146.69 29.6906C146.55 29.5505 147.162 28.8047 148.052 28.0273L148.048 28.0228ZM135.408 77.1621C135.576 77.2796 135.267 77.9666 134.723 78.6988C134.173 79.431 133.592 79.9372 133.429 79.8242C133.261 79.7112 133.569 79.0197 134.114 78.2875C134.659 77.5553 135.24 77.0491 135.408 77.1621ZM66.3126 68.1586C66.14 68.2626 65.5362 67.5123 64.9687 66.4818C64.3966 65.4513 64.0652 64.5292 64.2377 64.4253C64.4103 64.3213 65.0141 65.0716 65.5861 66.1021C66.1582 67.1326 66.4851 68.0547 66.3171 68.1586H66.3126ZM69.1047 84.5881C68.9322 84.6921 68.342 83.9147 67.7881 82.857C67.2297 81.7994 66.9164 80.8638 67.0889 80.7644C67.2614 80.6604 67.8516 81.4378 68.4101 82.4954C68.964 83.5531 69.2772 84.4887 69.1047 84.5881ZM71.0342 79.7112C70.8708 79.8288 70.217 79.1056 69.5678 78.0977C68.9231 77.0943 68.5281 76.1858 68.6916 76.0728C68.855 75.9553 69.5088 76.6785 70.158 77.6864C70.8027 78.6898 71.1977 79.5983 71.0342 79.7112ZM72.7595 72.1315C72.596 72.2491 71.9468 71.5394 71.3066 70.5496C70.6665 69.5598 70.276 68.6603 70.4395 68.5428C70.6029 68.4253 71.2522 69.1349 71.8923 70.1247C72.5325 71.1146 72.9229 72.014 72.7595 72.1315ZM74.2032 78.3101C74.3758 78.2062 74.9614 78.97 75.5108 80.0186C76.0601 81.0627 76.3643 81.9937 76.1872 82.0932C76.0147 82.1971 75.4336 81.4333 74.8842 80.3892C74.3349 79.3406 74.0307 78.4141 74.2032 78.3101ZM76.4324 90.6492C76.2599 90.7531 75.6742 89.9893 75.1249 88.9452C74.5755 87.9011 74.2623 86.9746 74.4393 86.8706C74.6118 86.7667 75.1975 87.5305 75.7469 88.5746C76.2962 89.6187 76.6095 90.5452 76.4324 90.6492ZM79.665 77.7225C79.4924 77.822 78.9204 77.0491 78.3892 75.9914C77.858 74.9383 77.5765 74.0027 77.749 73.9033C77.9216 73.8039 78.4936 74.5768 79.0248 75.6344C79.5515 76.6875 79.8375 77.6231 79.665 77.7225ZM82.5706 89.7091C82.3981 89.8085 81.8215 89.0401 81.2858 87.987C80.7455 86.9384 80.4504 86.0073 80.6229 85.9079C80.7954 85.8039 81.3766 86.5768 81.9123 87.6254C82.4526 88.674 82.7431 89.6096 82.5706 89.7091ZM100.913 98.4594C100.831 98.6402 99.9001 98.3374 98.8378 97.7859C97.7754 97.239 96.9763 96.6469 97.0626 96.4662C97.1488 96.2854 98.075 96.5882 99.1419 97.1351C100.204 97.682 100.999 98.2786 100.917 98.4594H100.913ZM103.251 93.2209C103.124 93.3701 102.32 92.8142 101.457 91.9825C100.595 91.1509 100.005 90.3554 100.136 90.2108C100.268 90.0616 101.071 90.6175 101.93 91.4492C102.792 92.2808 103.382 93.0763 103.251 93.2255V93.2209ZM104.567 88.3893C104.386 88.4751 103.882 87.6571 103.437 86.5633C102.992 85.4695 102.779 84.5158 102.96 84.4299C103.142 84.344 103.65 85.1621 104.095 86.2559C104.54 87.3497 104.754 88.3034 104.567 88.3893ZM108.522 98.6854C108.39 98.8345 107.591 98.3012 106.733 97.4921C105.87 96.6786 105.28 95.9012 105.412 95.743C105.539 95.5938 106.343 96.1272 107.201 96.9362C108.059 97.7498 108.649 98.5272 108.522 98.6854ZM112.712 102.798C112.635 102.979 111.704 102.726 110.633 102.224C109.561 101.718 108.753 101.167 108.83 100.977C108.903 100.792 109.838 101.049 110.91 101.551C111.981 102.053 112.785 102.609 112.712 102.798ZM113.094 93.8447C112.957 93.9938 112.177 93.4288 111.346 92.5836C110.515 91.7384 109.956 90.9384 110.093 90.7938C110.229 90.6447 111.01 91.2096 111.841 92.0548C112.671 92.8955 113.23 93.7 113.094 93.8447ZM117.734 99.7521C117.652 99.9328 116.735 99.6255 115.691 99.0696C114.646 98.5091 113.87 97.9125 113.956 97.7317C114.038 97.5509 114.955 97.8537 115.999 98.4142C117.039 98.9701 117.82 99.5667 117.734 99.7521ZM144.42 85.3791C144.688 85.1124 144.956 84.8729 145.197 84.674C145.71 84.2537 146.114 84.0186 146.214 84.1135C146.35 84.231 145.905 84.8864 145.197 85.6277C145.119 85.7045 145.047 85.7813 144.965 85.8627C144.125 86.6943 143.326 87.2593 143.176 87.1237C143.026 86.9927 143.585 86.2107 144.425 85.3746L144.42 85.3791ZM145.192 95.1057C145.192 95.1057 145.188 95.1057 145.183 95.1102C144.161 95.7385 143.24 96.1091 143.131 95.9464C143.049 95.8289 143.412 95.4628 144.007 95.0334C144.234 94.8661 144.493 94.6944 144.779 94.5181C145.8 93.8944 146.718 93.5192 146.831 93.682C146.945 93.8447 146.209 94.4774 145.197 95.1012L145.192 95.1057ZM153.823 86.4412C153.973 86.5768 153.414 87.3588 152.574 88.1904C151.734 89.022 150.931 89.5915 150.785 89.4559C150.636 89.3203 151.194 88.5384 152.034 87.7068C152.874 86.8751 153.678 86.3102 153.823 86.4412ZM151.049 81.9214C151.889 81.0898 152.692 80.5203 152.838 80.6559C152.987 80.7915 152.429 81.5734 151.589 82.4051C150.749 83.2367 149.95 83.8017 149.8 83.6706C149.65 83.535 150.209 82.7531 151.049 81.9214ZM146.531 88.5927C147.371 87.761 148.17 87.196 148.32 87.3271C148.47 87.4627 147.912 88.2446 147.072 89.0763C146.232 89.9079 145.428 90.4774 145.283 90.3418C145.133 90.2062 145.691 89.4243 146.531 88.5927Z" fill="#141414"/>
<path d="M15.1594 176.995H0V176.91C1.43467 173.579 1.99764 171.766 1.99764 167.178V155.156C1.99764 150.573 1.43467 148.756 0 145.425V145.339C2.1293 145.339 13.4659 145.294 14.6373 145.294C23.2362 145.248 25.8013 148.539 25.8013 152.557C25.8013 155.757 24.2804 159.043 19.1138 160.426C24.9342 161.465 27.2814 164.62 27.2814 168.557C27.2814 173.615 23.7174 176.991 15.1639 176.991L15.1594 176.995ZM12.685 159.612C16.8528 159.567 18.2875 156.241 18.2875 153.126C18.2875 150.012 16.8528 147.115 12.4671 147.115C11.5137 147.115 10.642 147.201 9.81567 147.287V159.612H12.685ZM19.1138 168.39C19.1138 164.543 17.5928 161.47 12.8575 161.47H9.81567V175.047C10.642 175.179 11.5954 175.264 12.5942 175.264C17.157 175.264 19.1092 172.367 19.1092 168.39H19.1138Z" fill="#1D1D1B"/>
<path d="M28.1032 176.995V176.91C30.0145 175.138 31.4901 172.367 32.7931 168.824L41.3511 145.212H46.6948L55.3392 169.041C56.5559 172.412 57.8589 175.052 59.4661 176.91V176.995H46.3498V176.91C47.957 174.921 48.4337 171.979 47.1307 168.263L46.2635 165.8H35.9711L35.449 167.183C33.6239 172.069 34.7544 175.224 37.0562 176.914V177H28.1077L28.1032 176.995ZM45.6052 163.893L41.1741 151.309L36.6113 163.893H45.6052Z" fill="#1D1D1B"/>
<path d="M71.4928 175.183L76.7911 174.88C79.7467 174.749 83.9599 169.389 86.0438 166.058L86.9109 166.315L84.5229 176.995H61.8905V176.91C63.1481 173.841 63.6702 172.069 63.6702 167.87V155.156C63.6702 150.573 63.1073 148.756 61.6726 145.425V145.339H73.4859V145.425C72.0512 148.756 71.4883 150.659 71.4883 155.111V175.174L71.4928 175.183Z" fill="#1D1D1B"/>
<path d="M99.4643 175.183L104.763 174.88C107.718 174.749 111.931 169.389 114.015 166.058L114.882 166.315L112.494 176.995H89.8665V176.91C91.1241 173.841 91.6463 172.069 91.6463 167.87V155.156C91.6463 150.573 91.0833 148.756 89.6486 145.425V145.339H101.462V145.425C100.027 148.756 99.4643 150.659 99.4643 155.111V175.183Z" fill="#1D1D1B"/>
<path d="M117.62 176.91C118.964 173.624 119.618 171.721 119.618 167.395V154.943C119.618 150.618 118.964 148.715 117.62 145.429V145.343H140.552L142.291 154.252L141.378 154.555C139.122 152.308 135.603 147.635 133.302 147.418L127.436 147.029V160.132H130.087C132.475 160.132 134.605 157.407 135.862 155.807H136.775V166.487H135.862C134.605 164.887 132.516 161.99 129.996 161.99H127.431V175.31L134.033 174.962C136.988 174.83 141.374 169.212 143.63 166.012L144.543 166.315L142.155 176.995H117.616V176.91H117.62Z" fill="#1D1D1B"/>
<path d="M159.098 176.995H147.716V176.91C148.974 173.841 149.496 172.069 149.496 167.87V154.464C149.496 150.225 148.974 148.498 147.716 145.425V145.339H161.441C170.735 145.339 173.863 148.494 173.863 153.208C173.863 156.756 172.301 159.951 168.347 161.728L172.646 170.374C174.339 173.705 175.252 175.346 177.772 176.815V176.986H167.261L160.528 163.02H157.314V167.865C157.314 172.015 157.791 173.832 159.094 176.905V176.991L159.098 176.995ZM157.319 147.205V161.172H159.707C164.528 161.172 165.831 157.108 165.831 153.434C165.831 149.759 164.442 147.165 159.489 147.165C158.967 147.165 158.186 147.165 157.319 147.21V147.205Z" fill="#1D1D1B"/>
<path d="M179.992 176.91C181.427 173.579 181.99 171.766 181.99 167.178V155.156C181.99 150.573 181.427 148.756 179.992 145.425V145.339H191.851V145.425C190.416 148.756 189.808 150.659 189.808 155.111V167.219C189.808 171.671 190.416 173.574 191.851 176.905V176.991H179.992V176.905V176.91Z" fill="#1D1D1B"/>
<path d="M194.062 176.995V176.91C195.973 175.138 197.449 172.367 198.752 168.824L207.31 145.212H212.653L221.298 169.041C222.514 172.412 223.817 175.052 225.425 176.91V176.995H212.308V176.91C213.915 174.921 214.392 171.979 213.089 168.263L212.222 165.8H201.93L201.407 167.183C199.582 172.069 200.713 175.224 203.015 176.914V177H194.066L194.062 176.995ZM211.568 163.893L207.137 151.309L202.579 163.893H211.568Z" fill="#1D1D1B"/>
</g>
</svg>
