<svg width="66" height="62" viewBox="0 0 66 62" fill="none" xmlns="http://www.w3.org/2000/svg">
<path fill-rule="evenodd" clip-rule="evenodd" d="M55.2968 38.0531C56.1219 37.3325 57.0364 36.7234 58.1885 35.8404C58.5461 35.5435 58.9242 35.2187 59.3252 34.8583C60.9039 33.4373 62.1939 32.095 63.2718 30.9023C63.3383 30.8313 63.3996 30.7551 63.4609 30.6815C64.899 28.9103 64.9399 26.5555 65.0268 23.8809C64.4443 24.5686 63.7827 25.2943 63.0343 26.048C62.2475 26.8422 61.3637 27.6669 60.3725 28.5119C60.3266 28.5525 60.2806 28.5906 60.2346 28.6287C59.7876 29.0068 59.315 29.3925 58.8245 29.7782C55.4731 32.3995 55.3811 32.0924 53.9098 33.5946C53.3989 34.1174 52.7168 34.8609 51.6746 36.0205C51.7717 35.8226 51.8662 35.6323 51.9607 35.4496C52.8318 33.7393 53.593 32.6811 54.4104 31.8463C55.8614 30.3669 57.4911 29.598 60.2218 27.1493C60.2423 27.134 60.2627 27.1137 60.2831 27.096C61.8618 25.6749 63.1518 24.3326 64.2298 23.1399C65.9464 21.2444 65.8953 18.6231 66 15.6288C65.673 16.0678 65.3129 16.5271 64.9118 17.0067C63.5682 18.618 61.7851 20.4527 59.4453 22.3787C54.7374 26.256 55.6698 24.5863 51.386 29.3493C51.4958 29.1209 51.6056 28.9027 51.7104 28.6946C51.8483 28.4231 51.9837 28.1694 52.114 27.9308C54.1831 24.1676 55.4143 24.4163 59.3737 21.0185C61.4096 19.2727 62.9857 17.6233 64.1914 16.1667C66.2018 13.7408 66.1686 12.4061 65.788 8.42213C65.5785 8.70888 65.3537 9.00831 65.1111 9.31535C64.7585 9.76196 64.3728 10.2289 63.9488 10.7161C62.6486 12.2005 60.9882 13.8474 58.8833 15.5653C54.2061 19.3894 55.2202 17.6918 50.9696 22.4193C51.4728 21.3814 51.9071 20.5795 52.3158 19.9325C52.3618 19.8614 52.4077 19.7929 52.4512 19.7269C53.3631 18.349 54.1627 17.7146 55.3122 16.8925C56.1832 16.2682 57.2561 15.5349 58.73 14.2864C58.7939 14.2331 58.8577 14.1773 58.9216 14.124C59.5858 13.5556 60.2014 12.9948 60.771 12.4518C61.7238 11.5382 62.5515 10.6628 63.2667 9.84062C63.4174 9.67061 63.5579 9.49552 63.6882 9.31789C64.125 8.7241 64.4622 8.09479 64.6921 7.39189C65.2873 5.58008 65.1724 3.30135 64.2528 0C64.2528 0 61.4735 7.47563 49.2811 14.8015C48.5122 15.2634 47.7152 15.781 46.9897 16.2809L47.0051 16.3038C48.1239 17.9506 48.9822 19.7193 49.6183 21.554C49.6387 21.6123 49.6591 21.6682 49.677 21.7291C50.405 23.8733 50.824 26.1038 50.99 28.3267C51.0079 28.5728 51.0232 28.819 51.036 29.0651C51.0999 30.3187 51.0845 31.5697 51.0002 32.7979C50.8674 34.7365 50.5634 36.6245 50.1241 38.3957C49.322 41.6336 48.0703 44.4909 46.5913 46.5844C45.8428 47.5233 44.8976 48.2642 43.9985 48.7667C43.9065 48.8174 43.8146 48.8656 43.7252 48.9113C42.688 50.1547 40.7339 52.2583 38.9943 52.7557C38.4732 52.9054 38.1054 52.9714 37.8499 52.9841C36.8715 53.0323 37.5229 52.2913 37.5229 52.2913C37.5229 52.2913 37.9597 51.5478 38.6699 49.4899C39.0301 48.4419 39.2063 47.6476 39.2932 47.1198C39.002 46.4347 38.8257 45.6607 38.8717 45.0136C38.9049 44.5772 39.0684 44.0367 39.3417 43.4403C39.3519 43.4124 39.3672 43.3871 39.38 43.3591C39.4132 43.2754 39.4515 43.1891 39.4924 43.1029C39.7964 42.4405 40.2179 41.7275 40.7339 41.0195C41.5155 39.9512 42.3534 38.7433 43.0406 37.2335C43.2807 36.6702 43.5004 36.0662 43.6919 35.4141C43.7941 35.0588 43.8912 34.6883 43.9755 34.3026C44.1007 33.8687 44.2054 33.4221 44.2871 32.9526C44.3663 32.4274 44.4225 31.8716 44.4583 31.288C44.4659 31.118 44.4685 30.9429 44.4685 30.7678C44.4685 27.1746 43.4799 23.5155 41.8297 20.511C32.3297 29.7579 37.4948 39.0783 28.8122 44.0214C28.2145 37.4035 26.5209 31.3489 24.0942 25.9363C23.9358 25.5836 23.7749 25.2359 23.6114 24.8908C23.4581 24.561 23.4198 24.2082 23.3074 24.5508C20.4362 33.2369 24.5821 42.0193 24.4952 42.0904C22.6253 39.0783 21.4912 35.1121 21.4912 30.7678C21.4912 21.3383 26.8351 13.6952 33.4256 13.6952C37.0069 13.6952 40.2204 16.2682 42.4071 19.9578L42.4019 19.9629C44.2386 23.0638 45.3523 26.9513 45.3523 30.7653C45.3523 32.0163 45.1812 33.1404 44.8976 34.1681C44.8874 34.2138 44.8772 34.2595 44.8695 34.3026V34.3204L44.8619 34.3305V34.3382L44.8593 34.3508V34.3559L44.8542 34.3711L44.8517 34.394V34.4117H44.8466V34.427L44.844 34.4295V34.4447L44.8389 34.4498V34.4625L44.8363 34.4701V34.4803L44.8287 34.498V34.5082L44.8261 34.5132V34.5285L44.8236 34.531V34.5462H44.8185V34.564L44.8108 34.5818L44.8082 34.5995L44.8057 34.6147V34.6224L44.8031 34.6325V34.6401L44.798 34.6503V34.668L44.7904 34.6782V34.6985L44.7852 34.701V34.7162H44.7827L44.7776 34.734V34.7492L44.775 34.7518V34.767L44.7699 34.7695V34.7848L44.7648 34.7898V34.8L44.7623 34.8101V34.8203L44.7571 34.8304V34.838L44.752 34.8482V34.8685L44.7469 34.871V34.8863H44.7444L44.7393 34.9015L44.7367 34.9192L44.7342 34.9345V34.9522L44.729 34.9599V34.97L44.7239 34.9776V34.9878L44.7188 34.9979V35.0055L44.7137 35.0157V35.036L44.7086 35.0385V35.0537L44.6984 35.0715V35.0867L44.6933 35.0893V35.1045L44.6882 35.107V35.1197L44.6831 35.1273V35.1375L44.678 35.1476V35.1578L44.6754 35.1679V35.173L44.6703 35.1857V35.1908L44.6652 35.206L44.6626 35.2238L44.6575 35.2415L44.6524 35.272V35.277L44.6473 35.2897V35.2973L44.6448 35.3075V35.3176L44.6396 35.3253V35.3354L44.6345 35.343V35.3557L44.632 35.3582L44.6269 35.3735L44.6218 35.3912C43.8401 38.0607 42.5756 39.9081 41.4338 41.4712C40.9459 42.1411 40.55 42.806 40.2715 43.415C39.9982 44.0088 39.8347 44.5518 39.8041 44.9883C39.7504 45.7064 39.9778 46.5844 40.3277 47.3203C40.6649 48.0384 41.0941 48.5992 41.4466 48.688C41.8604 48.792 42.7034 48.5535 43.6383 48.0308C44.4608 47.574 45.3191 46.9016 45.991 46.054C46.3869 45.5567 46.816 44.8893 47.2503 44.0443C48.3615 42.0066 49.1406 39.5503 49.6591 37.1548C49.7945 36.5331 49.912 35.919 50.0142 35.3151C50.3054 33.587 50.4638 31.963 50.5251 30.6359C50.5251 30.5597 50.5251 30.4836 50.5226 30.4075V30.3796C50.5226 30.3288 50.5226 30.2806 50.52 30.2299C50.5174 30.0446 50.5098 29.8568 50.5021 29.6716C50.4996 29.5523 50.4919 29.4331 50.4868 29.3138C50.4766 29.1235 50.4638 28.9382 50.4485 28.7505V28.7454C50.4357 28.5931 50.4229 28.4383 50.4076 28.2861V28.2683C50.2007 26.1545 49.7358 24.0814 49.0537 22.1224C49.0333 22.0615 49.0129 22.0006 48.9899 21.9397C46.2975 14.3879 40.3635 8.5617 33.4716 8.5617C24.0507 8.5617 16.4129 18.4937 16.4129 30.745C16.4129 35.5308 19.5242 44.2244 19.394 44.1915C19.2458 44.1559 17.1997 39.0326 16.5764 36.9036C16.252 35.7947 15.9659 34.4371 15.7717 32.9019C15.0897 27.54 17.3862 19.4579 17.7208 16.6895C18.0248 14.157 15.6798 12.3274 13.626 10.135C14.1497 13.6495 12.5199 19.1052 11.9682 25.9921C11.7587 28.6109 11.7102 30.2324 11.7791 32.3665C11.8328 34.0641 12.359 38.2003 12.4688 39.7634C12.4688 39.7863 12.4382 39.7939 12.4305 39.771C12.0218 38.4236 11.2733 33.9829 11.1967 32.468C11.0869 30.3263 10.9387 28.1897 11.0307 25.9262C11.2733 19.9147 13.064 15.2278 12.7294 11.7869C12.4254 8.65813 11.4496 7.73699 8.34594 5.18929C8.91303 8.69873 8.37149 14.2915 7.2041 21.351C6.83626 23.584 6.65489 25.614 6.67022 27.8699C6.69832 32.2269 7.43656 34.5158 7.83761 35.7313C7.16834 34.0489 6.09291 31.1231 5.97285 27.9334C5.89367 25.7688 5.71741 23.5764 6.06992 21.5007C7.00741 16.0043 7.45188 12.0128 7.20155 8.65051C6.98442 5.71457 5.7685 2.84967 1.26244 0.312119C1.32885 0.461834 4.58068 7.69132 1.20879 21.2951C-2.93709 38.0303 3.59466 54.5903 20.6022 60.1197C23.8668 61.2996 27.3766 62 30.9299 62C38.4272 62 44.1466 60.5105 48.6016 57.9551C49.1253 57.6582 49.6336 57.3411 50.1215 57.0137C53.3529 54.8441 55.8537 52.068 57.8666 48.8834C61.2027 44.2016 63.1084 38.7839 64.1327 33.5261C64.2553 32.8943 64.3677 32.265 64.4648 31.6407C64.3805 31.7346 64.2911 31.831 64.2017 31.9249C63.2182 32.9806 62.0585 34.1022 60.6995 35.2618C60.209 35.678 59.6931 36.1017 59.1515 36.5281C59.011 36.6372 58.8756 36.7437 58.7453 36.8427C58.7351 36.8529 58.7249 36.8605 58.7147 36.8681C56.1909 38.8144 55.7336 38.9235 54.7553 39.8345C54.1856 40.3674 53.4372 41.1692 51.999 42.7704C52.1421 42.4735 52.2826 42.1969 52.4205 41.9356C53.4449 39.9741 54.3287 38.9108 55.3505 38.0176L55.2968 38.0531ZM61.3407 30.3973C61.8516 29.971 62.3241 29.6894 62.4033 29.7706C62.4825 29.8518 62.13 30.2654 61.6191 30.6917C61.1108 31.118 60.6356 31.3997 60.5565 31.3159C60.4798 31.2347 60.8298 30.8236 61.3407 30.3973ZM58.8475 33.9753C59.3559 33.549 59.831 33.2673 59.9102 33.351C59.9894 33.4322 59.6369 33.8459 59.126 34.2696C58.6176 34.6959 58.1425 34.9776 58.0633 34.8964C57.9841 34.8152 58.3366 34.4016 58.8475 33.9753ZM61.2257 24.8401C61.7392 24.4163 62.2169 24.1397 62.2935 24.2209C62.3701 24.3047 62.0176 24.7158 61.5042 25.137C60.9933 25.5608 60.5156 25.8373 60.4389 25.7561C60.3598 25.6724 60.7148 25.2639 61.2257 24.8401ZM56.9164 26.6544C57.3889 26.185 57.8411 25.8678 57.9228 25.9439C58.0071 26.0201 57.6929 26.459 57.2203 26.926C56.7478 27.3929 56.2982 27.7101 56.2139 27.6365C56.1296 27.5603 56.4438 27.1213 56.9164 26.6544ZM62.3216 16.1642C62.8223 15.7277 63.2923 15.4385 63.3715 15.5197C63.4507 15.5983 63.1058 16.0196 62.6051 16.456C62.1045 16.8925 61.6344 17.1818 61.5552 17.1006C61.4761 17.0194 61.8184 16.6007 62.319 16.1642H62.3216ZM59.5832 19.3057C60.0967 18.8718 60.5769 18.5876 60.651 18.6662C60.7276 18.7474 60.3725 19.1661 59.8591 19.5975C59.3456 20.0314 58.8654 20.3182 58.7913 20.237C58.7147 20.1558 59.0698 19.7396 59.5832 19.3032V19.3057ZM56.007 21.1606C56.5076 20.7242 56.9777 20.4349 57.0569 20.5161C57.136 20.5973 56.7937 21.016 56.2931 21.4525C55.7898 21.8889 55.3198 22.1782 55.2432 22.097C55.164 22.0183 55.5063 21.5996 56.007 21.1632V21.1606ZM59.1643 10.7338C59.6675 10.2974 60.1375 10.0081 60.2142 10.0893C60.2933 10.1705 59.951 10.5892 59.4504 11.0257C58.9497 11.4621 58.4797 11.7514 58.4005 11.6702C58.3213 11.589 58.6636 11.1703 59.1643 10.7338ZM57.0313 14.1189C57.5396 13.6799 58.0122 13.3881 58.0914 13.4693C58.1706 13.548 57.8181 13.9718 57.3097 14.4108C56.8014 14.8498 56.3263 15.1416 56.2471 15.0629C56.1705 14.9817 56.5204 14.5605 57.0288 14.1189H57.0313ZM52.8522 15.7328C53.3529 15.2964 53.8229 15.0071 53.9021 15.0883C53.9813 15.1695 53.639 15.5882 53.1383 16.0246C52.6376 16.4611 52.1676 16.7504 52.0884 16.6692C52.0092 16.5905 52.3541 16.1718 52.8548 15.7354L52.8522 15.7328ZM45.7406 43.3211C45.8351 43.3871 45.6614 43.7728 45.3549 44.1838C45.0458 44.5949 44.7188 44.8791 44.6269 44.8157C44.5324 44.7523 44.7061 44.364 45.0126 43.9529C45.3191 43.5418 45.6461 43.2576 45.7406 43.3211ZM6.86436 38.2663C6.76729 38.3246 6.42755 37.9034 6.10824 37.3248C5.78638 36.7463 5.5999 36.2286 5.69697 36.1703C5.79404 36.1119 6.13378 36.5331 6.45565 37.1117C6.77751 37.6903 6.96143 38.2079 6.86691 38.2663H6.86436ZM8.43535 47.4903C8.33828 47.5486 8.0062 47.1122 7.69456 46.5184C7.38036 45.9246 7.2041 45.3993 7.30117 45.3435C7.39824 45.2851 7.73032 45.7216 8.04452 46.3154C8.35616 46.9092 8.53242 47.4345 8.43535 47.4903ZM9.52099 44.7523C9.42903 44.8182 9.06119 44.4122 8.6959 43.8464C8.33317 43.283 8.11093 42.773 8.20289 42.7095C8.29485 42.6436 8.66269 43.0496 9.02798 43.6154C9.39071 44.1788 9.61295 44.6888 9.52099 44.7523ZM10.4891 40.4968C10.3972 40.5628 10.0319 40.1644 9.67171 39.6086C9.31153 39.0529 9.09184 38.5479 9.1838 38.482C9.27576 38.416 9.64105 38.8144 10.0012 39.3701C10.3614 39.9258 10.5811 40.4308 10.4891 40.4968ZM11.304 43.9656C11.4011 43.9073 11.7306 44.3361 12.0397 44.9248C12.3488 45.511 12.5199 46.0337 12.4203 46.0896C12.3232 46.1479 11.9963 45.7191 11.6872 45.1329C11.3781 44.5442 11.2069 44.024 11.304 43.9656ZM12.5582 50.8931C12.4612 50.9515 12.1316 50.5227 11.8226 49.9365C11.5135 49.3503 11.3372 48.8301 11.4368 48.7717C11.5339 48.7134 11.8634 49.1422 12.1725 49.7284C12.4816 50.3146 12.6579 50.8348 12.5582 50.8931ZM14.377 43.6357C14.2799 43.6916 13.9581 43.2576 13.6592 42.6639C13.3603 42.0726 13.202 41.5473 13.299 41.4915C13.3961 41.4357 13.718 41.8696 14.0168 42.4634C14.3132 43.0546 14.4741 43.5799 14.377 43.6357ZM16.0119 50.3653C15.9148 50.4212 15.5904 49.9898 15.289 49.3985C14.985 48.8098 14.8189 48.2871 14.916 48.2312C15.0131 48.1729 15.34 48.6068 15.6415 49.1955C15.9454 49.7842 16.1089 50.3095 16.0119 50.3653ZM26.3319 55.278C26.2859 55.3795 25.7622 55.2095 25.1645 54.8999C24.5667 54.5929 24.1172 54.2605 24.1657 54.159C24.2142 54.0575 24.7353 54.2275 25.3356 54.5345C25.9334 54.8416 26.3804 55.1765 26.3344 55.278H26.3319ZM27.6474 52.337C27.5759 52.4207 27.1237 52.1086 26.6384 51.6417C26.1531 51.1748 25.821 50.7282 25.8951 50.647C25.9691 50.5633 26.4213 50.8754 26.9041 51.3423C27.3894 51.8092 27.7215 52.2558 27.6474 52.3395V52.337ZM28.3882 49.6244C28.286 49.6726 28.0025 49.2133 27.7521 48.5992C27.5018 47.9851 27.3817 47.4497 27.4839 47.4015C27.5861 47.3532 27.8722 47.8125 28.1225 48.4266C28.3729 49.0407 28.4929 49.5761 28.3882 49.6244ZM30.6131 55.4049C30.5391 55.4886 30.0895 55.1892 29.6067 54.735C29.1213 54.2782 28.7892 53.8418 28.8633 53.753C28.9349 53.6692 29.387 53.9686 29.8698 54.4229C30.3526 54.8796 30.6847 55.3161 30.6131 55.4049ZM32.9683 57.7141C32.9249 57.8156 32.4013 57.6735 31.7984 57.3918C31.1955 57.1076 30.7409 56.798 30.7843 56.6914C30.8252 56.5874 31.3514 56.732 31.9542 57.0137C32.5571 57.2954 33.0092 57.6075 32.9683 57.7141ZM33.1855 52.6872C33.1088 52.7709 32.6695 52.4537 32.202 51.9792C31.7345 51.5047 31.4203 51.0555 31.497 50.9743C31.5736 50.8906 32.013 51.2078 32.4804 51.6823C32.9479 52.1543 33.2621 52.606 33.1855 52.6872ZM35.7961 56.0038C35.7501 56.1053 35.2341 55.9327 34.6466 55.6206C34.0591 55.3059 33.6223 54.971 33.6708 54.8695C33.7168 54.768 34.2328 54.938 34.8203 55.2526C35.4053 55.5648 35.8447 55.8997 35.7961 56.0038ZM50.8087 47.9343C50.9594 47.7846 51.1101 47.6501 51.2455 47.5385C51.5341 47.3025 51.7615 47.1705 51.8177 47.2238C51.8943 47.2898 51.644 47.6578 51.2455 48.0739C51.202 48.1171 51.1612 48.1602 51.1152 48.2059C50.6426 48.6728 50.193 48.99 50.1087 48.9138C50.0244 48.8403 50.3386 48.4013 50.8112 47.9318L50.8087 47.9343ZM51.2455 53.3952C51.2455 53.3952 51.2429 53.3952 51.2404 53.3977C50.6656 53.7504 50.147 53.9585 50.0857 53.8671C50.0398 53.8012 50.2441 53.5956 50.5788 53.3546C50.7065 53.2607 50.8521 53.1642 51.013 53.0653C51.5878 52.7151 52.1038 52.5045 52.1676 52.5958C52.2315 52.6872 51.8177 53.0424 51.248 53.3926L51.2455 53.3952ZM56.1015 48.5307C56.1858 48.6068 55.8716 49.0458 55.399 49.5127C54.9264 49.9796 54.4743 50.2993 54.3926 50.2232C54.3083 50.1471 54.6225 49.7081 55.095 49.2412C55.5676 48.7743 56.0197 48.4571 56.1015 48.5307ZM54.5382 45.9931C55.0107 45.5262 55.4629 45.2065 55.5446 45.2826C55.6289 45.3587 55.3147 45.7977 54.8421 46.2646C54.3696 46.7316 53.92 47.0487 53.8357 46.9752C53.7514 46.899 54.0656 46.46 54.5382 45.9931ZM51.999 49.7385C52.4716 49.2716 52.9212 48.9544 53.0055 49.028C53.0898 49.1042 52.7756 49.5432 52.303 50.0101C51.8304 50.477 51.3783 50.7967 51.2966 50.7206C51.2123 50.6445 51.5265 50.2055 51.999 49.7385Z" fill="#FDFBF6"/>
</svg>
