<svg width="284" height="223" viewBox="0 0 284 223" fill="none" xmlns="http://www.w3.org/2000/svg">
<path fill-rule="evenodd" clip-rule="evenodd" d="M191.991 85.3947C193.839 83.7776 195.886 82.4109 198.466 80.4293C199.267 79.7631 200.113 79.0342 201.011 78.2257C204.546 75.0369 207.435 72.0246 209.848 69.3483C209.997 69.1889 210.134 69.0181 210.272 68.8529C213.492 64.8783 213.583 59.5941 213.778 53.5923C212.474 55.1355 210.992 56.764 209.316 58.4552C207.555 60.2375 205.576 62.0881 203.356 63.9843C203.253 64.0754 203.15 64.1609 203.048 64.2463C202.047 65.0947 200.988 65.9602 199.89 66.8258C192.386 72.7079 192.18 72.0189 188.885 75.3899C187.741 76.5629 186.214 78.2314 183.88 80.8336C184.098 80.3895 184.309 79.9624 184.521 79.5524C186.472 75.7145 188.176 73.34 190.006 71.4666C193.255 68.1468 196.904 66.4215 203.019 60.9265C203.065 60.8924 203.11 60.8468 203.156 60.8069C206.691 57.6182 209.58 54.6059 211.993 51.9296C215.837 47.676 215.723 41.7938 215.957 35.0746C215.225 36.0597 214.419 37.0904 213.521 38.1666C210.512 41.7824 206.519 45.8994 201.28 50.2213C190.739 58.9221 192.826 55.1753 183.234 65.8634C183.48 65.351 183.726 64.8612 183.961 64.3943C184.269 63.785 184.573 63.2156 184.864 62.6804C189.497 54.2358 192.254 54.7938 201.12 47.1692C205.679 43.2516 209.208 39.5503 211.908 36.2818C216.409 30.8381 216.335 27.8429 215.482 18.9029C215.013 19.5464 214.51 20.2183 213.967 20.9073C213.177 21.9095 212.314 22.9573 211.364 24.0505C208.453 27.3817 204.735 31.0773 200.022 34.9323C189.549 43.5135 191.82 39.704 182.302 50.3124C183.429 47.9835 184.401 46.1841 185.316 44.7321C185.419 44.5726 185.522 44.4189 185.619 44.2708C187.661 41.1789 189.452 39.7553 192.025 37.9104C193.976 36.5096 196.378 34.8639 199.679 32.0624C199.822 31.9428 199.965 31.8175 200.108 31.6979C201.595 30.4224 202.973 29.164 204.249 27.9454C206.382 25.8955 208.235 23.931 209.837 22.086C210.174 21.7045 210.489 21.3116 210.781 20.913C211.759 19.5806 212.514 18.1684 213.029 16.5911C214.361 12.5254 214.104 7.41194 212.045 0.00372314C212.045 0.00372314 205.822 16.779 178.521 33.2183C176.799 34.2546 175.015 35.4163 173.39 36.538L173.425 36.5893C175.93 40.2849 177.852 44.2537 179.276 48.3707C179.322 48.5017 179.368 48.6269 179.408 48.7636C181.038 53.5752 181.976 58.5805 182.348 63.5687C182.388 64.121 182.422 64.6733 182.451 65.2257C182.594 68.0386 182.559 70.8459 182.37 73.6019C182.073 77.9523 181.392 82.1889 180.409 86.1634C178.613 93.4293 175.81 99.841 172.498 104.539C170.822 106.646 168.706 108.308 166.692 109.436C166.487 109.55 166.281 109.658 166.08 109.76C163.758 112.551 159.383 117.271 155.487 118.387C154.32 118.723 153.497 118.871 152.925 118.9C150.734 119.008 152.193 117.345 152.193 117.345C152.193 117.345 153.171 115.677 154.761 111.059C155.567 108.707 155.962 106.925 156.157 105.74C155.504 104.203 155.11 102.466 155.213 101.014C155.287 100.035 155.653 98.8218 156.265 97.4836C156.288 97.421 156.322 97.364 156.351 97.3014C156.425 97.1135 156.511 96.9199 156.603 96.7263C157.283 95.2401 158.227 93.64 159.383 92.0513C161.133 89.654 163.009 86.9436 164.548 83.5555C165.085 82.2914 165.577 80.9361 166.006 79.4727C166.235 78.6755 166.452 77.8441 166.641 76.9786C166.921 76.0049 167.156 75.0027 167.339 73.9493C167.516 72.7706 167.642 71.5235 167.722 70.2138C167.739 69.8323 167.745 69.4394 167.745 69.0465C167.745 60.9835 165.531 52.7724 161.836 46.0304C140.564 66.7802 152.13 87.6952 132.688 98.7876C131.35 83.937 127.557 70.3505 122.124 58.2047C121.769 57.4132 121.409 56.6331 121.043 55.8586C120.699 55.1184 120.614 54.3269 120.362 55.0956C113.933 74.587 123.216 94.2948 123.022 94.4543C118.835 87.6952 116.295 78.7951 116.295 69.0465C116.295 47.8867 128.261 30.7356 143.018 30.7356C151.037 30.7356 158.233 36.5096 163.129 44.789L163.118 44.8004C167.23 51.7588 169.724 60.4824 169.724 69.0408C169.724 71.8481 169.341 74.3707 168.706 76.6768C168.683 76.7793 168.66 76.8818 168.643 76.9786V77.0185L168.626 77.0413V77.0583L168.62 77.0868V77.0982L168.609 77.1324L168.603 77.1836V77.2235H168.591V77.2576L168.586 77.2633V77.2975L168.574 77.3089V77.3374L168.569 77.3544V77.3772L168.551 77.4171V77.4399L168.546 77.4512V77.4854L168.54 77.4911V77.5253H168.528V77.5651L168.511 77.605L168.506 77.6449L168.5 77.679V77.6961L168.494 77.7189V77.736L168.483 77.7587V77.7986L168.466 77.8214V77.8669L168.454 77.8726V77.9068H168.448L168.437 77.9466V77.9808L168.431 77.9865V78.0207L168.42 78.0264V78.0605L168.408 78.0719V78.0947L168.403 78.1175V78.1402L168.391 78.163V78.1801L168.38 78.2029V78.2484L168.368 78.2541V78.2883H168.363L168.351 78.3225L168.345 78.3623L168.34 78.3965V78.4363L168.328 78.4534V78.4762L168.317 78.4933V78.5161L168.305 78.5388V78.5559L168.294 78.5787V78.6243L168.283 78.63V78.6641L168.26 78.704V78.7381L168.248 78.7438V78.778L168.237 78.7837V78.8122L168.225 78.8293V78.852L168.214 78.8748V78.8976L168.208 78.9204V78.9317L168.197 78.9602V78.9716L168.185 79.0058L168.18 79.0456L168.168 79.0855L168.157 79.1538V79.1652L168.145 79.1937V79.2108L168.14 79.2335V79.2563L168.128 79.2734V79.2962L168.117 79.3133V79.3417L168.111 79.3474L168.1 79.3816L168.088 79.4215C166.338 85.4118 163.507 89.5572 160.95 93.0649C159.857 94.5682 158.971 96.0601 158.347 97.4267C157.735 98.7591 157.369 99.9777 157.301 100.957C157.18 102.569 157.689 104.539 158.473 106.19C159.228 107.802 160.189 109.06 160.978 109.259C161.905 109.493 163.792 108.958 165.886 107.785C167.728 106.76 169.65 105.251 171.154 103.349C172.04 102.233 173.001 100.735 173.974 98.8389C176.462 94.2664 178.206 88.7543 179.368 83.379C179.671 81.9839 179.934 80.6059 180.163 79.2506C180.815 75.3728 181.169 71.7285 181.307 68.7504C181.307 68.5796 181.307 68.4088 181.301 68.2379V68.1753C181.301 68.0614 181.301 67.9532 181.295 67.8393C181.289 67.4237 181.272 67.0023 181.255 66.5866C181.249 66.319 181.232 66.0513 181.221 65.7837C181.198 65.3567 181.169 64.941 181.135 64.5196V64.5082C181.106 64.1665 181.078 63.8192 181.043 63.4775V63.4377C180.58 58.6944 179.539 54.0422 178.012 49.6462C177.966 49.5095 177.92 49.3729 177.869 49.2362C171.84 32.2901 158.553 19.2161 143.121 19.2161C122.026 19.2161 104.924 41.5034 104.924 68.9953C104.924 79.7346 111.891 99.2431 111.599 99.1691C111.267 99.0894 106.686 87.5927 105.29 82.8152C104.564 80.3268 103.923 77.2804 103.489 73.8354C101.961 61.8034 107.103 43.6672 107.853 37.4548C108.533 31.772 103.283 27.6664 98.6839 22.7466C99.8564 30.6331 96.2072 42.8757 94.9717 58.3299C94.5027 64.2064 94.394 67.845 94.5485 72.6339C94.6686 76.4434 95.8469 85.725 96.0928 89.2326C96.0928 89.2839 96.0242 89.301 96.007 89.2497C95.0919 86.2261 93.4159 76.2611 93.2443 72.8617C92.9984 68.0557 92.6666 63.2612 92.8726 58.1819C93.4159 44.6922 97.4255 34.1749 96.6762 26.4535C95.9956 19.4325 93.8106 17.3655 86.861 11.6485C88.1308 19.5236 86.9182 32.0737 84.3043 47.9152C83.4806 52.9261 83.0745 57.4815 83.1088 62.5437C83.1718 72.3207 84.8248 77.4569 85.7228 80.1845C84.2242 76.4092 81.8162 69.8437 81.5473 62.686C81.37 57.8288 80.9753 52.909 81.7647 48.2511C83.8639 35.9174 84.8591 26.9603 84.2986 19.4154C83.8124 12.8272 81.0897 6.39837 71 0.704116C71.1487 1.04008 78.43 17.263 70.8799 47.7899C61.5966 85.3435 76.2222 122.504 114.305 134.912C121.615 137.56 129.474 139.131 137.43 139.131C154.218 139.131 167.024 135.789 177 130.055C178.172 129.389 179.31 128.677 180.403 127.942C187.638 123.074 193.238 116.844 197.745 109.698C205.215 99.1919 209.482 87.0347 211.776 75.2362C212.051 73.8183 212.302 72.4061 212.52 71.0053C212.331 71.216 212.131 71.4324 211.93 71.6431C209.728 74.0119 207.131 76.5288 204.089 79.1311C202.99 80.0649 201.835 81.0158 200.622 81.9725C200.308 82.2173 200.005 82.4565 199.713 82.6786C199.69 82.7013 199.667 82.7184 199.644 82.7355C193.993 87.103 192.969 87.3479 190.779 89.3921C189.503 90.5879 187.827 92.3873 184.607 95.9803C184.927 95.3141 185.242 94.6934 185.551 94.1069C187.844 89.7053 189.823 87.3194 192.111 85.315L191.991 85.3947ZM205.53 68.2152C206.674 67.2585 207.732 66.6265 207.909 66.8087C208.087 66.9909 207.297 67.9191 206.153 68.8757C205.015 69.8323 203.951 70.4644 203.774 70.2765C203.602 70.0943 204.386 69.1718 205.53 68.2152ZM199.942 76.2441C201.08 75.2874 202.144 74.6554 202.321 74.8433C202.498 75.0255 201.709 75.9537 200.565 76.9046C199.427 77.8612 198.363 78.4933 198.186 78.3111C198.008 78.1289 198.798 77.2007 199.942 76.2441ZM205.267 55.7448C206.417 54.7938 207.486 54.1731 207.658 54.3554C207.829 54.5433 207.04 55.4657 205.89 56.411C204.746 57.3619 203.677 57.9826 203.505 57.8004C203.328 57.6125 204.123 56.6957 205.267 55.7448ZM195.618 59.8161C196.676 58.7627 197.688 58.0509 197.871 58.2218C198.06 58.3926 197.356 59.3777 196.298 60.4254C195.24 61.4732 194.233 62.1849 194.045 62.0198C193.856 61.849 194.559 60.8639 195.618 59.8161ZM207.721 36.2761C208.842 35.2967 209.894 34.6475 210.071 34.8298C210.249 35.0063 209.477 35.9515 208.356 36.9309C207.234 37.9104 206.182 38.5595 206.005 38.3773C205.827 38.1951 206.594 37.2555 207.715 36.2761H207.721ZM201.589 43.3256C202.739 42.3519 203.814 41.7141 203.98 41.8906C204.151 42.0729 203.356 43.0124 202.207 43.9804C201.057 44.9541 199.982 45.5976 199.816 45.4154C199.644 45.2332 200.439 44.2993 201.589 43.3199V43.3256ZM193.581 47.4881C194.702 46.5087 195.755 45.8595 195.932 46.0417C196.109 46.224 195.343 47.1635 194.222 48.1429C193.095 49.1223 192.043 49.7715 191.871 49.5893C191.694 49.4127 192.46 48.4732 193.581 47.4938V47.4881ZM200.651 24.0904C201.778 23.111 202.83 22.4619 203.002 22.6441C203.179 22.8263 202.413 23.7658 201.292 24.7452C200.17 25.7247 199.118 26.3738 198.941 26.1916C198.763 26.0094 199.53 25.0698 200.651 24.0904ZM195.875 31.6865C197.013 30.7014 198.071 30.0466 198.249 30.2288C198.426 30.4053 197.637 31.3563 196.498 32.3414C195.36 33.3265 194.296 33.9813 194.119 33.8048C193.947 33.6226 194.731 32.6773 195.869 31.6865H195.875ZM186.517 35.3081C187.638 34.3287 188.691 33.6795 188.868 33.8617C189.045 34.044 188.279 34.9835 187.158 35.9629C186.037 36.9423 184.984 37.5915 184.807 37.4093C184.63 37.2327 185.402 36.2932 186.523 35.3138L186.517 35.3081ZM170.593 97.216C170.805 97.364 170.416 98.2296 169.73 99.152C169.038 100.075 168.305 100.712 168.1 100.57C167.888 100.428 168.277 99.5563 168.963 98.6339C169.65 97.7114 170.382 97.0736 170.593 97.216ZM83.5435 85.873C83.3262 86.004 82.5655 85.0588 81.8505 83.7605C81.1298 82.4622 80.7122 81.3006 80.9296 81.1696C81.1469 81.0386 81.9077 81.9839 82.6284 83.2822C83.3491 84.5804 83.7609 85.7421 83.5493 85.873H83.5435ZM87.0612 106.572C86.8439 106.703 86.1003 105.723 85.4025 104.391C84.6989 103.058 84.3043 101.88 84.5216 101.754C84.739 101.623 85.4826 102.603 86.1861 103.935C86.8839 105.268 87.2786 106.446 87.0612 106.572ZM89.4921 100.428C89.2862 100.576 88.4626 99.6645 87.6446 98.3947C86.8324 97.1306 86.3348 95.986 86.5407 95.8437C86.7466 95.6956 87.5703 96.6067 88.3882 97.8765C89.2004 99.1406 89.6981 100.285 89.4921 100.428ZM91.6657 90.8783C91.4598 91.0263 90.6418 90.1323 89.8353 88.8853C89.0288 87.6383 88.5369 86.5051 88.7429 86.3571C88.9488 86.209 89.7667 87.103 90.5732 88.35C91.3797 89.5971 91.8716 90.7302 91.6657 90.8783ZM93.4846 98.6623C93.7019 98.5314 94.4398 99.4937 95.1319 100.815C95.824 102.13 96.2072 103.303 95.9841 103.428C95.7668 103.559 95.0346 102.597 94.3426 101.282C93.6505 99.9606 93.2672 98.7933 93.4846 98.6623ZM96.293 114.208C96.0757 114.339 95.3378 113.376 94.6457 112.061C93.9536 110.746 93.5589 109.578 93.782 109.447C93.9994 109.316 94.7372 110.279 95.4293 111.594C96.1214 112.909 96.5161 114.077 96.293 114.208ZM100.366 97.9221C100.148 98.0474 99.4275 97.0736 98.7582 95.7412C98.089 94.4144 97.7344 93.2357 97.9518 93.1104C98.1691 92.9852 98.8898 93.9589 99.559 95.2913C100.223 96.6181 100.583 97.7968 100.366 97.9221ZM104.026 113.023C103.809 113.149 103.082 112.18 102.407 110.854C101.727 109.533 101.355 108.36 101.572 108.234C101.79 108.103 102.522 109.077 103.197 110.398C103.877 111.719 104.244 112.898 104.026 113.023ZM127.134 124.047C127.031 124.275 125.859 123.894 124.52 123.199C123.182 122.51 122.175 121.764 122.284 121.536C122.392 121.308 123.559 121.69 124.903 122.379C126.242 123.068 127.243 123.82 127.14 124.047H127.134ZM130.08 117.448C129.92 117.636 128.907 116.935 127.821 115.887C126.734 114.84 125.99 113.838 126.156 113.655C126.322 113.467 127.334 114.168 128.415 115.216C129.502 116.263 130.246 117.265 130.08 117.453V117.448ZM131.739 111.361C131.51 111.469 130.875 110.438 130.314 109.06C129.754 107.682 129.485 106.481 129.714 106.372C129.943 106.264 130.583 107.295 131.144 108.673C131.704 110.051 131.973 111.252 131.739 111.361ZM136.721 124.332C136.555 124.52 135.548 123.848 134.467 122.829C133.38 121.804 132.637 120.824 132.803 120.625C132.963 120.437 133.975 121.109 135.056 122.128C136.137 123.153 136.881 124.133 136.721 124.332ZM142 129.514C141.903 129.742 140.73 129.423 139.38 128.791C138.03 128.153 137.012 127.458 137.11 127.219C137.201 126.986 138.379 127.31 139.729 127.942C141.079 128.574 142.092 129.275 142 129.514ZM142.48 118.233C142.309 118.421 141.325 117.71 140.278 116.645C139.232 115.58 138.528 114.572 138.7 114.39C138.871 114.202 139.855 114.914 140.902 115.979C141.949 117.038 142.652 118.051 142.48 118.233ZM148.326 125.676C148.223 125.904 147.068 125.516 145.752 124.816C144.437 124.11 143.459 123.358 143.567 123.131C143.67 122.903 144.826 123.284 146.141 123.99C147.451 124.691 148.435 125.442 148.326 125.676ZM181.947 107.568C182.285 107.232 182.622 106.93 182.925 106.68C183.572 106.15 184.081 105.854 184.206 105.974C184.378 106.122 183.818 106.947 182.925 107.881C182.828 107.978 182.736 108.075 182.634 108.177C181.575 109.225 180.569 109.937 180.38 109.766C180.191 109.601 180.895 108.616 181.953 107.562L181.947 107.568ZM182.92 119.822C182.92 119.822 182.914 119.822 182.908 119.828C181.621 120.619 180.46 121.086 180.323 120.881C180.22 120.733 180.677 120.272 181.427 119.731C181.713 119.52 182.039 119.304 182.399 119.082C183.686 118.296 184.841 117.823 184.984 118.028C185.127 118.233 184.201 119.031 182.925 119.816L182.92 119.822ZM193.793 108.906C193.982 109.077 193.278 110.062 192.22 111.11C191.162 112.158 190.149 112.875 189.966 112.704C189.778 112.534 190.481 111.548 191.539 110.501C192.597 109.453 193.61 108.741 193.793 108.906ZM190.298 103.212C191.356 102.164 192.369 101.447 192.552 101.618C192.74 101.788 192.037 102.774 190.979 103.821C189.921 104.869 188.914 105.581 188.725 105.416C188.536 105.245 189.24 104.26 190.298 103.212ZM184.607 111.617C185.665 110.569 186.672 109.857 186.86 110.022C187.049 110.193 186.346 111.178 185.288 112.226C184.229 113.274 183.217 113.991 183.034 113.82C182.845 113.65 183.549 112.664 184.607 111.617Z" fill="#FDFBF6"/>
<path d="M19.0984 222.991H0V222.882C1.80746 218.686 2.51672 216.402 2.51672 210.623V195.476C2.51672 189.702 1.80746 187.413 0 183.216V183.108C2.68259 183.108 16.965 183.051 18.4407 183.051C29.274 182.994 32.5057 187.14 32.5057 192.202C32.5057 196.233 30.5895 200.373 24.0804 202.116C31.4132 203.425 34.3703 207.4 34.3703 212.359C34.3703 218.731 29.8803 222.985 19.1042 222.985L19.0984 222.991ZM15.9811 201.091C21.2319 201.034 23.0394 196.843 23.0394 192.919C23.0394 188.996 21.2319 185.346 15.7066 185.346C14.5054 185.346 13.4072 185.454 12.3662 185.562V201.091H15.9811ZM24.0804 212.149C24.0804 207.303 22.1643 203.431 16.1985 203.431H12.3662V220.536C13.4072 220.702 14.6084 220.81 15.8668 220.81C21.6152 220.81 24.0747 217.16 24.0747 212.149H24.0804Z" fill="#FDFBF6"/>
<path d="M35.4056 222.991V222.882C37.8137 220.65 39.6726 217.16 41.3142 212.695L52.096 182.949H58.8282L69.7188 212.969C71.2517 217.217 72.8933 220.542 74.9181 222.882V222.991H58.3935V222.882C60.4184 220.377 61.0189 216.67 59.3773 211.989L58.2849 208.886H45.3181L44.6603 210.628C42.3609 216.784 43.7851 220.758 46.6851 222.888V222.996H35.4113L35.4056 222.991ZM57.4555 206.483L51.873 190.63L46.1245 206.483H57.4555Z" fill="#FDFBF6"/>
<path d="M90.0698 220.707L96.7449 220.326C100.468 220.161 105.776 213.407 108.402 209.211L109.494 209.535L106.486 222.991H77.9725V222.882C79.5568 219.016 80.2146 216.784 80.2146 211.494V195.476C80.2146 189.702 79.5054 187.413 77.6979 183.216V183.108H92.5808V183.216C90.7734 187.413 90.0641 189.81 90.0641 195.419V220.696L90.0698 220.707Z" fill="#FDFBF6"/>
<path d="M125.31 220.707L131.985 220.326C135.708 220.161 141.016 213.407 143.642 209.211L144.734 209.535L141.725 222.991H113.218V222.882C114.802 219.016 115.46 216.784 115.46 211.494V195.476C115.46 189.702 114.751 187.413 112.943 183.216V183.108H127.826V183.216C126.019 187.413 125.31 189.81 125.31 195.419V220.707Z" fill="#FDFBF6"/>
<path d="M148.183 222.882C149.876 218.743 150.7 216.345 150.7 210.896V195.208C150.7 189.759 149.876 187.362 148.183 183.222V183.114H177.074L179.265 194.337L178.115 194.719C175.272 191.889 170.839 186.001 167.939 185.727L160.549 185.238V201.745H163.89C166.898 201.745 169.581 198.312 171.165 196.296H172.315V209.751H171.165C169.581 207.736 166.95 204.086 163.775 204.086H160.544V220.867L168.86 220.428C172.584 220.263 178.109 213.185 180.952 209.154L182.102 209.535L179.093 222.991H148.177V222.882H148.183Z" fill="#FDFBF6"/>
<path d="M200.439 222.991H186.1V222.882C187.684 219.016 188.342 216.784 188.342 211.494V194.605C188.342 189.264 187.684 187.088 186.1 183.216V183.108H203.391C215.099 183.108 219.04 187.083 219.04 193.022C219.04 197.492 217.073 201.518 212.091 203.755L217.507 214.649C219.641 218.845 220.79 220.912 223.965 222.763V222.979H210.724L202.241 205.384H198.191V211.488C198.191 216.716 198.792 219.005 200.434 222.877V222.985L200.439 222.991ZM198.197 185.46V203.055H201.206C207.28 203.055 208.922 197.936 208.922 193.306C208.922 188.677 207.172 185.409 200.931 185.409C200.273 185.409 199.29 185.409 198.197 185.465V185.46Z" fill="#FDFBF6"/>
<path d="M226.762 222.882C228.569 218.686 229.279 216.402 229.279 210.623V195.476C229.279 189.702 228.569 187.413 226.762 183.216V183.108H241.702V183.216C239.895 187.413 239.128 189.81 239.128 195.419V210.674C239.128 216.283 239.895 218.68 241.702 222.877V222.985H226.762V222.877V222.882Z" fill="#FDFBF6"/>
<path d="M244.488 222.991V222.882C246.896 220.65 248.755 217.16 250.396 212.695L261.178 182.949H267.91L278.801 212.969C280.334 217.217 281.975 220.542 284 222.882V222.991H267.475V222.882C269.5 220.377 270.101 216.67 268.459 211.989L267.367 208.886H254.4L253.742 210.628C251.443 216.784 252.867 220.758 255.767 222.888V222.996H244.493L244.488 222.991ZM266.543 206.483L260.961 190.63L255.218 206.483H266.543Z" fill="#FDFBF6"/>
</svg>
